<svg version="1.1" id="Layer_1" xmlns="http://www.w3.org/2000/svg" xmlns:xlink="http://www.w3.org/1999/xlink" x="0px" y="0px"
	 viewBox="0 0 68.52 76.39" style="enable-background:new 0 0 68.52 76.39;" xml:space="preserve">
<style type="text/css">
	.st0{fill:none;stroke:#4D4D4D;stroke-width:5;stroke-miterlimit:10;}
  
  

  @keyframes strokem { 
    0%  {stroke-dasharray : 150}
    100%  {stroke-dasharray : 300}
  }
     
	.smoke {fill:#fff;  
  }
	.st3{fill:none;stroke:#000;stroke-width:4;stroke-miterlimit:10;
  
stroke-dasharray:150;      
stroke-dashoffset : 150;
  
    animation:strokem 3s linear infinite
  }	
	

</style>
  
  
<g>

		<path d="M14.84,39.35c1.25-5.09,7.1-6.4,11.59-6.83c2.8-0.26,5.59-0.55,8.39-0.82c2.73-0.27,5.54-0.43,8.23,0.21
			c2.23,0.54,4.46,1.59,5.91,3.43c0.4,0.51,0.7,0.89,0.41,1.49c-0.23,0.49-0.78,0.95-1.17,1.3c-0.91,0.81-2.04,1.42-3.18,1.83
			c-2.53,0.91-5.24,1.01-7.9,1.04c-3,0.04-6,0.06-8.99,0.08c-4.23,0.04-10.47,0.94-13.63-2.58c-1.29-1.44-3.41,0.69-2.12,2.12
			c3.54,3.96,9.7,3.52,14.52,3.47c3.56-0.03,7.12-0.04,10.67-0.1c3.17-0.06,6.39-0.3,9.32-1.58c2.27-0.99,5.58-3.15,5.67-5.94
			c0.09-2.79-3.27-5.25-5.49-6.3c-6.07-2.89-12.89-1.3-19.29-0.77c-6.21,0.52-14.1,2.03-15.85,9.15
			C11.49,40.43,14.38,41.23,14.84,39.35L14.84,39.35z"/>


		<path d="M11.95,39.57c-0.65,5.22-0.22,10.81,1.66,15.74c1.86,4.9,4.53,9.05,9.58,11.04c5.1,2,10.76,1.2,15.84-0.42
			c2.5-0.8,5.38-1.6,7.59-3.03c2.2-1.43,3.32-3.82,4.22-6.2c2.25-5.97,2.28-12.52,2.3-18.81c0.01-1.93-2.99-1.93-3,0
			c-0.01,4.97-0.01,10.01-1.22,14.86c-0.56,2.24-1.29,4.83-2.79,6.63c-1.43,1.72-4.13,2.35-6.16,3.07c-4.5,1.59-9.39,2.82-14.14,1.6
			c-4.71-1.2-7.37-4.59-9.1-8.96c-1.95-4.91-2.43-10.29-1.78-15.52C15.19,37.66,12.18,37.68,11.95,39.57L11.95,39.57z"/>

		<path d="M51.85,38.02c1.4-0.51,2.79-1.05,4.23-1.45c1.58-0.44,2.7-0.47,4.17,0.39c2.81,1.64,4.53,4.88,4.58,8.1
			c0.05,3.38-1.69,6.62-4.28,8.74c-3.08,2.53-6.87,3.18-10.7,2.32c-1.88-0.42-2.68,2.47-0.8,2.89c3.63,0.81,7.2,0.62,10.56-1.07
			c3.1-1.56,5.65-4.16,7.04-7.34c2.7-6.19,0.3-14.25-6.25-16.89c-3.11-1.25-6.41,0.34-9.35,1.41
			C49.25,35.78,50.03,38.68,51.85,38.02L51.85,38.02z"/>

		<path d="M53.99,41.73c1.13-0.3,2.35,0.15,3.2,1.1c0.9,1,1.19,2.44,1.13,3.74c-0.07,1.51-1.14,2.13-2.36,2.8
			c-1.51,0.84-3.11,1.47-4.78,1.93c-1.86,0.52-1.07,3.41,0.8,2.89c2.17-0.6,4.31-1.49,6.23-2.66c0.87-0.53,1.69-1.16,2.26-2.02
			c0.65-0.97,0.85-2.2,0.84-3.34c-0.02-2.06-0.73-4.19-2.21-5.66c-1.54-1.53-3.81-2.22-5.93-1.67
			C51.33,39.33,52.12,42.22,53.99,41.73L53.99,41.73z"/>


		<path d="M14.65,57.23c-3.13,0.97-6.46,1.72-9.45,3.09c-2.53,1.16-4.48,3.4-4.04,6.34c0.47,3.11,3.11,5.01,5.82,6.13
			c3.16,1.31,6.54,1.9,9.94,2.22c6.77,0.65,13.78,0.81,20.57,0.33c3.35-0.24,6.71-0.69,9.97-1.52c3.01-0.77,6.32-1.79,8.88-3.61
			c2.77-1.96,4.01-5.21,2.38-8.36c-1.65-3.21-5.36-4.36-8.76-4.18c-1.92,0.1-1.93,3.1,0,3c2.42-0.13,5.34,0.45,6.3,3
			c0.9,2.38-1.18,3.96-3.07,4.91c-4.81,2.43-10.38,3.38-15.7,3.75c-5.49,0.39-11.02,0.19-16.51-0.06c-2.79-0.13-5.59-0.33-8.34-0.9
			c-2.41-0.51-5.27-1.19-7.16-2.87c-0.95-0.84-1.73-2.19-1.26-3.48c0.39-1.06,1.52-1.68,2.49-2.11c2.76-1.22,5.85-1.9,8.73-2.78
			C17.29,59.56,16.5,56.66,14.65,57.23L14.65,57.23z"/>


	<path d="M16.95,42.07c0.87-1.97,4.04-4.74,6.17-5.04c13.83-1.96,18.83-0.96,24.83,4.04L16.95,42.07z"/>

</g>
  
<defs>  
<mask id="svgmask">   
<g class="smoke">
		<path d="M20.74,9.37c-2.12-2.12-3.96,1.56-4.54,3.16c-0.69,1.89-0.51,4.2,0.98,5.67c0.68,0.67,1.63,0.81,2.34,1.4
			c0.53,0.44,0.76,1.18,0.81,1.84c0.14,2.01-1.33,3.81-2.46,5.32c-0.48,0.65-0.11,1.68,0.54,2.05c0.76,0.45,1.57,0.11,2.05-0.54
			c2.05-2.76,4.12-6.46,1.99-9.81c-0.45-0.7-1.06-1.31-1.79-1.7c-0.6-0.32-1.34-0.45-1.67-1.12c-0.29-0.61-0.22-1.3-0.04-1.93
			c0.11-0.38,0.27-0.73,0.45-1.08c0.11-0.21,0.23-0.42,0.34-0.63c0.05-0.08,0.1-0.16,0.14-0.25c0.23-0.31,0.19-0.33-0.1-0.05
			c-0.27,0-0.53,0-0.8,0c0.05,0.01,0.11,0.02,0.16,0.02c-0.22-0.13-0.44-0.26-0.66-0.39c0.04,0.04,0.08,0.08,0.12,0.12
			C19.98,12.86,22.1,10.74,20.74,9.37L20.74,9.37z"/>

		<path d="M30.82,26.15c-0.81-2.11-0.67-4.43,0.61-6.33c0.65-0.96,1.61-1.69,1.95-2.84c0.34-1.15,0.06-2.38-0.59-3.37
			c-0.63-0.96-1.51-1.67-2.48-2.27c-0.84-0.52-1.98-1.01-2.48-1.93c-1.32-2.42,1.86-4.66,3.51-5.77c1.59-1.07,0.09-3.67-1.51-2.59
			c-2.27,1.53-4.63,3.35-5.14,6.21c-0.52,2.93,1.16,4.88,3.51,6.31c0.81,0.49,2.62,1.41,2.29,2.61c-0.14,0.5-0.79,0.98-1.1,1.38
			c-0.42,0.53-0.79,1.09-1.09,1.7c-1.15,2.41-1.34,5.19-0.38,7.69C28.61,28.73,31.51,27.96,30.82,26.15L30.82,26.15z"/>

		<path d="M38.82,3.79c-1.49,1.76-2.44,3.84-2.63,6.16c-0.2,2.46,1.06,3.87,2.99,5.15c0.72,0.48,1.5,1.1,1.84,1.92
			c0.42,1.01-0.17,2.02-0.7,2.86c-1.25,2.01-2.7,4.04-1.93,6.53c0.57,1.84,3.47,1.05,2.89-0.8c-0.59-1.9,1.5-3.73,2.24-5.32
			c0.89-1.9,0.82-3.93-0.46-5.64c-0.56-0.75-1.23-1.35-1.99-1.89c-0.6-0.42-1.5-0.79-1.8-1.5c-0.69-1.64,0.64-4.14,1.66-5.35
			C42.18,4.44,40.07,2.31,38.82,3.79L38.82,3.79z"/>

</g>
</mask>  
<!-- <path class="st0" d="M16.95,29.97"/> -->
</defs>  
<path mask="url(#svgmask)" class="st3" d="M17.68,29.68l1.88-2.16L20.65,26l0.44-1.43l0.63-1.73v-1.49l-0.68-1.48l-0.47-1.34l-1.76-0.98l-1.13-1.17
	l-0.73-0.95l0.38-1.27l0.87-1.58l0.28-1.36l1.39-0.94l0.9-1.38l2.6,6.52l1.11,12.09l2.09,3.49l3.38-1.04v-0.54L29.17,26l-0.36-2.03
	l0.25-1.99l0.46-1.8l1.35-1.49L32.04,17v-1.35l-0.78-1.6l-1.27-1.13l-1.71-1.06l-1.48-1.58l-0.72-1.64l0.17-1.52l0.64-1.45l1-1.24
	l0.75-0.68l0.98-0.75l1.3-0.91l1.12-0.77l1.74,9.34l1.06,11.61c0,0-0.15,6.05,0,6.24s3.34,1.74,3.34,1.74h1.98v-2.74l-0.19-1.28
	v-1.45l0.58-1.74l0.67-1.8l0.88-0.67l0.37-1.68l0.18-0.88l-0.14-1.25l-0.42-0.91l-0.66-0.85l-1.37-1.13l-1.14-0.77l-0.55-0.99
	L37.7,11.1l-0.01-1.16l-0.03-1.32l0.98-1.95l0.31-0.55l0.44-0.66l0.5-0.62l0.81-0.48l0.53-0.68"/>  
  
</svg>
