<svg version="1.1" id="Layer_1" xmlns="http://www.w3.org/2000/svg" xmlns:xlink="http://www.w3.org/1999/xlink" x="0px" y="0px"
	 viewBox="0 0 60.16 88.97" style="enable-background:new 0 0 60.16 88.97;" xml:space="preserve">
  

  <style>
    .footprint { 
      visibility:hidden;
      animation:foot 4s linear infinite ;      
      animation-timing-function: steps(4, end);
    }
    
    .footprint:nth-of-type(1) {animation-delay:.2s}
    .footprint:nth-of-type(2) {animation-delay:.4s}
    .footprint:nth-of-type(3) {animation-delay:.6s}
    .footprint:nth-of-type(4) {animation-delay:.8s}
    
    @keyframes foot { 

      0% {visibility:hidden}
      90% {visibility:visible}
      100% {visibility:hidden}

    }
  </style>
 
<g class="footprint">
	<g>
		<path d="M15.22,76.29c-1.7,0.84-3.15,1.05-4.87,0.82c-1.8-0.24-3.6-1.15-5.34-0.62c-1.76,0.54-2.76,2.37-3.45,4.08
			c-0.3,0.75-0.58,1.52-0.61,2.32c-0.09,2.38,2.09,4.36,4.41,4.89c2.33,0.52,4.74-0.05,7.06-0.62c0.97-0.24,1.94-0.48,2.84-0.9
			c2.02-0.94,3.55-2.72,4.66-4.66c0.26-0.45,0.51-0.93,0.58-1.45c0.15-1.09-0.61-2.06-1.45-2.77c-0.85-0.73-1.88-1.12-3.07-1.14"/>
	</g>
	<g>
		<g>
			<path d="M5.07,68.92c0.05,0.02,0.09,0.04,0.14,0.06c-0.09-0.06-0.06-0.03,0.08,0.07c-0.13-0.12,0.07,0.08,0.05,0.08
				c-0.05,0-0.11-0.22-0.14-0.25c0.13,0.14,0.06,0.15,0.01,0.02c-0.01-0.04-0.03-0.08-0.04-0.11c-0.07-0.17-0.14-0.35-0.22-0.52
				c-0.36-0.72-1.14-1.11-1.93-0.91c-0.74,0.19-1.27,0.9-1.57,1.56c-0.27,0.61-0.43,1.25-0.44,1.92c-0.03,1.25,0.44,2.53,1.32,3.43
				c0.27,0.28,0.6,0.55,0.98,0.67c0.56,0.16,1.09-0.03,1.53-0.39c0.54-0.45,0.91-1.11,1.08-1.78c0.43-1.62-0.2-3.25-1.14-4.57
				c-0.45-0.63-1.32-0.68-1.75,0c-0.75,1.16-1.12,2.57-1.05,3.94c0.02,0.43,0.3,0.88,0.75,0.98c0.47,0.11,0.87-0.09,1.15-0.47
				c0.42-0.57,0.73-1.23,0.92-1.92c0.15-0.51-0.18-1.13-0.71-1.25c-0.54-0.12-1.09,0.16-1.25,0.71c-0.04,0.14-0.08,0.28-0.14,0.42
				c-0.01,0.02-0.08,0.19-0.04,0.11c0.04-0.09-0.08,0.15-0.07,0.15c-0.13,0.27-0.29,0.51-0.47,0.75c0.63,0.17,1.26,0.34,1.89,0.51
				C3.99,71.87,4,71.59,4.02,71.31c0.01-0.07,0.02-0.22,0-0.07c0.01-0.06,0.02-0.13,0.03-0.19c0.03-0.14,0.06-0.29,0.1-0.43
				c0.03-0.13,0.07-0.25,0.11-0.37c0.03-0.08,0.05-0.15,0.08-0.23c0.02-0.06,0.06-0.12,0.01-0.03c0.13-0.27,0.26-0.52,0.42-0.77
				c-0.58,0-1.17,0-1.75,0c0.15,0.21,0.29,0.42,0.42,0.65c0.07,0.11,0.13,0.22,0.19,0.34c0.03,0.06,0.06,0.11,0.09,0.17
				c0.01,0.01,0.12,0.29,0.05,0.11c0.09,0.24,0.17,0.48,0.22,0.73c0.01,0.06,0.02,0.13,0.03,0.19c-0.03-0.2-0.01-0.05-0.01-0.01
				c0.01,0.14,0.01,0.28,0.01,0.42c0,0.06-0.01,0.11-0.01,0.17c0-0.04,0.04-0.21,0-0.02c-0.02,0.11-0.05,0.22-0.08,0.33
				c-0.02,0.07-0.15,0.34-0.05,0.15c-0.06,0.11-0.11,0.22-0.18,0.33c-0.03,0.05-0.15,0.18-0.01,0.03c-0.04,0.04-0.07,0.08-0.11,0.12
				c-0.04,0.04-0.08,0.08-0.12,0.12c0.06-0.06,0.13-0.04,0.01-0.02c0.23-0.05,0.29-0.1,0.54,0c-0.03-0.01-0.15-0.11-0.02,0
				c-0.09-0.07-0.17-0.15-0.25-0.24c-0.03-0.04-0.07-0.07-0.1-0.11c-0.02-0.03-0.12-0.16-0.04-0.04c0.08,0.11-0.01-0.02-0.03-0.05
				c-0.03-0.04-0.06-0.08-0.08-0.13c-0.05-0.09-0.1-0.17-0.15-0.26c-0.02-0.05-0.04-0.09-0.07-0.14c-0.06-0.11,0.06,0.18,0,0
				c-0.07-0.21-0.14-0.41-0.18-0.62c-0.01-0.05-0.02-0.1-0.03-0.15c-0.03-0.14,0.01,0.19,0.01,0.04c-0.01-0.11-0.02-0.23-0.02-0.34
				c0-0.1,0-0.2,0.01-0.31c0-0.05,0.01-0.1,0.01-0.15c0.02-0.21,0,0.04-0.01,0.04c0.02-0.01,0.05-0.26,0.06-0.3
				c0.03-0.12,0.07-0.24,0.11-0.36c0.02-0.05,0.08-0.17-0.02,0.03c0.02-0.05,0.04-0.09,0.06-0.14c0.05-0.09,0.09-0.18,0.15-0.27
				c0.03-0.05,0.2-0.26,0.08-0.13c0.04-0.04,0.09-0.09,0.13-0.13c-0.08,0.05-0.08,0.06-0.02,0.02c0.06-0.04,0.05-0.03-0.05,0.01
				c-0.07,0-0.13,0.01-0.21,0c-0.05-0.02-0.09-0.04-0.14-0.06c0.07,0.04,0.06,0.03-0.02-0.02c-0.15-0.12,0.02,0.09-0.07-0.07
				c-0.09-0.15,0,0,0.01,0.03c0.02,0.03,0.03,0.07,0.05,0.1c0.1,0.18-0.08-0.22-0.01-0.02c0.03,0.09,0.07,0.17,0.1,0.25
				c0.25,0.63,0.57,1.11,1.24,1.36c0.5,0.19,1.14-0.21,1.25-0.71C5.91,69.59,5.6,69.12,5.07,68.92L5.07,68.92z"/>
		</g>
	</g>
	<g>
		<g>
			<path d="M12.92,66.36c-0.07-0.47-0.5-0.85-0.94-0.98c-0.52-0.15-1.04,0.01-1.43,0.36c-0.51,0.45-0.82,1.19-1.02,1.82
				c-0.4,1.24-0.38,2.67,0.1,3.89c0.28,0.72,0.67,1.59,1.46,1.86c0.7,0.24,1.52-0.07,2.11-0.47c1.11-0.75,1.88-2.03,1.84-3.4
				c-0.04-1.48-0.94-2.95-2.31-3.55c-0.39-0.17-0.78-0.19-1.13,0.08c-0.29,0.23-0.51,0.69-0.36,1.07c0.13,0.32,0.23,0.65,0.3,0.99
				c0.02,0.08,0.03,0.17,0.05,0.26c0.03,0.18-0.02-0.24,0.01,0.09c0.02,0.17,0.03,0.34,0.03,0.52c0,0.17,0,0.35-0.02,0.52
				c-0.01,0.07-0.01,0.14-0.02,0.21c0.02-0.17-0.01,0.06-0.02,0.09c-0.06,0.36-0.16,0.71-0.29,1.05c0.65,0,1.31,0,1.96,0
				c-0.03-0.16-0.02-0.32,0.04-0.54c0.15-0.51-0.18-1.13-0.71-1.25c-0.54-0.12-1.09,0.16-1.25,0.71c-0.16,0.54-0.16,1.07-0.04,1.62
				c0.09,0.42,0.56,0.76,0.98,0.75c0.48-0.02,0.82-0.31,0.98-0.75c0.56-1.52,0.55-3.29-0.05-4.8c-0.5,0.38-0.99,0.76-1.49,1.15
				c0.19,0.08,0.35,0.19,0.53,0.29c-0.14-0.09,0.01,0.01,0.06,0.06c0.09,0.08,0.16,0.16,0.24,0.24c0.01,0.01,0.11,0.12,0.03,0.03
				c-0.08-0.1,0.03,0.05,0.05,0.07c0.05,0.07,0.09,0.14,0.14,0.22c0.05,0.09,0.09,0.18,0.14,0.27c-0.08-0.18,0.03,0.09,0.05,0.16
				c0.02,0.08,0.04,0.17,0.06,0.25c0.04,0.19,0,0.03,0-0.01c0,0.04,0.01,0.09,0.01,0.13c0.01,0.1,0,0.2,0,0.3
				c0,0.02-0.01,0.16,0,0.04c0.01-0.14-0.02,0.11-0.02,0.12c-0.02,0.08-0.04,0.17-0.07,0.25c-0.02,0.05-0.04,0.11-0.06,0.16
				c0-0.01,0.07-0.15,0.02-0.04c-0.09,0.18-0.19,0.35-0.3,0.52c-0.08,0.12,0.11-0.11,0,0c-0.03,0.03-0.06,0.07-0.09,0.1
				c-0.07,0.07-0.14,0.14-0.22,0.21c-0.03,0.03-0.07,0.06-0.1,0.08c0.01-0.01,0.13-0.09,0.03-0.03c-0.1,0.06-0.19,0.13-0.29,0.18
				c-0.05,0.03-0.1,0.05-0.15,0.08c-0.1,0.05,0.03-0.02,0.04-0.02c-0.04,0.01-0.08,0.03-0.12,0.04c-0.05,0.02-0.18,0-0.09,0.03
				c0.03,0.01,0.09,0,0.13,0.01c0,0,0.33,0.13,0.18,0.09c-0.01-0.01-0.02-0.02-0.03-0.03c0.05,0.07,0.06,0.08,0.02,0.02
				c-0.03-0.05-0.07-0.11-0.1-0.16c-0.05-0.09-0.11-0.19-0.15-0.29c-0.03-0.05-0.1-0.26-0.05-0.1c-0.08-0.22-0.15-0.44-0.21-0.67
				c-0.02-0.11-0.05-0.21-0.06-0.32c-0.03-0.2,0,0.1-0.01-0.1c-0.01-0.23-0.02-0.47-0.01-0.7c0.01-0.11,0.02-0.22,0.03-0.33
				c-0.02,0.19,0,0.03,0-0.01c0.01-0.06,0.02-0.12,0.04-0.18c0.05-0.24,0.12-0.48,0.21-0.72c0-0.01,0.06-0.15,0.02-0.05
				c-0.05,0.11,0.07-0.14,0.07-0.13c0.05-0.1,0.1-0.19,0.16-0.29c0.03-0.05,0.06-0.11,0.1-0.16c0.03-0.05,0.03-0.05,0-0.01
				c-0.03,0.04-0.03,0.04,0.01,0c0.01-0.01,0.02-0.02,0.03-0.03c-0.07,0.04-0.14,0.08-0.22,0.12c-0.25,0.1-0.72-0.15-0.77-0.43
				c0.08,0.53,0.77,0.87,1.25,0.71C12.78,67.43,13.01,66.93,12.92,66.36L12.92,66.36z"/>
		</g>
	</g>
	<g>
		<g>
			<path d="M22.51,68.04c-2.34-0.59-4.53,0.94-5.53,2.99c-0.29,0.59-0.65,1.3-0.45,1.96c0.24,0.84,1.12,1.07,1.88,0.95
				c0.48-0.08,0.96-0.3,1.39-0.52c0.46-0.23,0.88-0.52,1.29-0.84c0.84-0.67,1.55-1.54,2.01-2.52c0.18-0.38,0.19-0.78-0.08-1.13
				c-0.24-0.31-0.68-0.48-1.07-0.36c-1.22,0.38-2.35,1.1-3.15,2.1c-0.17,0.22-0.3,0.43-0.3,0.72c0,0.25,0.11,0.55,0.3,0.72
				c0.37,0.34,1.08,0.44,1.44,0c0.17-0.21,0.34-0.4,0.54-0.58c0.09-0.09,0.19-0.17,0.28-0.25c0.16-0.13,0-0.04,0,0
				c0-0.01,0.17-0.12,0.18-0.13c0.21-0.14,0.43-0.27,0.65-0.38c0.01,0,0.2-0.1,0.2-0.1c0,0-0.21,0.08,0,0
				c0.13-0.05,0.26-0.09,0.39-0.14c-0.38-0.5-0.76-0.99-1.15-1.49c-0.16,0.34-0.35,0.67-0.57,0.98c-0.02,0.03-0.08,0.09-0.08,0.11
				c0,0,0.12-0.15,0.05-0.06c-0.06,0.07-0.12,0.15-0.18,0.22c-0.12,0.14-0.26,0.28-0.39,0.41c-0.13,0.12-0.26,0.24-0.4,0.35
				c-0.14,0.12,0.01-0.01,0.04-0.03c-0.04,0.02-0.08,0.06-0.11,0.08c-0.09,0.06-0.17,0.12-0.26,0.18c-0.15,0.1-0.3,0.19-0.46,0.27
				c-0.08,0.04-0.17,0.09-0.25,0.13c-0.03,0.02-0.06,0.03-0.1,0.05c-0.13,0.06-0.09,0.02,0.01,0c-0.18,0.04-0.36,0.14-0.54,0.19
				c-0.04,0.01-0.28,0.06-0.09,0.03c0.16-0.03,0.03-0.01-0.01-0.01c-0.08,0.01-0.23-0.04,0.07,0.02c-0.08-0.02-0.12-0.08,0.1,0.05
				c0.14,0.08,0.29,0.26,0.31,0.41c0,0.03-0.05,0.37,0.01,0.25c0.03-0.05,0.03-0.11,0.05-0.16c0.03-0.08,0.06-0.17,0.1-0.25
				c0.08-0.19-0.02,0.02-0.01,0.03c-0.01-0.03,0.07-0.14,0.08-0.18c0.08-0.17,0.17-0.34,0.27-0.51c0.05-0.09,0.11-0.17,0.16-0.26
				c0.03-0.04,0.06-0.08,0.09-0.13c0.02-0.02,0.15-0.2,0.06-0.08c-0.08,0.11,0.09-0.1,0.11-0.13c0.07-0.08,0.14-0.15,0.21-0.22
				c0.07-0.07,0.15-0.14,0.22-0.21c0.03-0.03,0.06-0.05,0.09-0.07c0.09-0.08-0.15,0.1,0.01-0.01c0.19-0.13,0.39-0.24,0.6-0.35
				c0.05-0.03,0.15-0.1-0.03,0.01c0.05-0.03,0.12-0.05,0.18-0.07c0.11-0.04,0.22-0.07,0.33-0.1c0.05-0.01,0.1-0.02,0.15-0.03
				c0.15-0.03,0,0.02-0.04,0c0.06,0.03,0.26-0.02,0.34-0.02c0.08,0,0.27-0.03,0.34,0.01c-0.1-0.06-0.16-0.03-0.04,0
				c0.07,0.02,0.15,0.03,0.22,0.05c0.51,0.13,1.13-0.17,1.25-0.71C23.34,68.76,23.06,68.18,22.51,68.04L22.51,68.04z"/>
		</g>
	</g>
	<g>
		<g>
			<path d="M26.34,72.94c-0.42-0.45-1.03-0.57-1.61-0.45c-0.47,0.09-0.88,0.36-1.25,0.65c-0.65,0.51-1.27,1.13-1.72,1.83
				c-0.5,0.78-0.69,1.91,0.03,2.63c0.45,0.45,1.15,0.57,1.72,0.33c0.48-0.19,0.87-0.52,1.24-0.88c0.69-0.67,1.29-1.45,1.75-2.3
				c0.2-0.36,0.17-0.8-0.08-1.13c-0.26-0.33-0.66-0.45-1.07-0.36c-0.76,0.17-1.47,0.57-2.04,1.1c-0.28,0.26-0.52,0.57-0.72,0.89
				c-0.25,0.4-0.46,0.87-0.47,1.34c-0.02,0.56,0.29,1.15,0.81,1.39c0.44,0.21,0.93,0.23,1.4,0.09c0.73-0.22,1.37-0.77,1.84-1.37
				c0.54-0.7,0.95-1.5,1.07-2.38c0.04-0.28,0.05-0.53-0.1-0.78c-0.12-0.21-0.36-0.41-0.61-0.47c-0.26-0.06-0.55-0.05-0.78,0.1
				c-0.21,0.13-0.43,0.35-0.47,0.61c-0.04,0.27-0.1,0.53-0.19,0.78c-0.02,0.06-0.05,0.13-0.07,0.19c-0.05,0.12,0.09-0.2,0.03-0.08
				c-0.01,0.03-0.02,0.05-0.04,0.08c-0.06,0.13-0.13,0.26-0.21,0.38c-0.04,0.06-0.07,0.11-0.11,0.17c-0.02,0.03-0.17,0.22-0.06,0.08
				c0.11-0.13-0.02,0.02-0.05,0.05c-0.05,0.06-0.1,0.12-0.15,0.17c-0.09,0.1-0.19,0.19-0.29,0.28c-0.02,0.02-0.04,0.04-0.07,0.06
				c-0.12,0.11,0.06-0.04,0.07-0.05c-0.06,0.04-0.12,0.09-0.19,0.13c-0.05,0.03-0.1,0.06-0.15,0.09c-0.01,0-0.06,0.03-0.06,0.03
				c-0.02-0.01,0.23-0.08,0.13-0.06c-0.05,0.02-0.11,0.04-0.16,0.05c-0.03,0.01-0.06,0.01-0.09,0.02c-0.14,0.04,0.13-0.03,0.13-0.02
				c0,0.02-0.3-0.02-0.04,0.01c0.19,0.03,0.09,0.02,0.05,0c-0.13-0.04,0.13,0.06,0.13,0.06c0,0-0.05-0.03-0.05-0.03
				c-0.07-0.04,0.16,0.13,0.18,0.17c0.11,0.15,0.05,0.07,0.03,0.04c0.05,0.1,0.07,0.19,0.07,0.3c-0.01-0.16-0.02,0.06-0.03,0.09
				c0.01-0.03,0.01-0.06,0.02-0.09c0.01-0.04,0.03-0.08,0.04-0.12c0.03-0.11-0.05,0.1-0.05,0.1c0.07-0.11,0.12-0.25,0.19-0.37
				c0.03-0.06,0.07-0.11,0.1-0.16c0.02-0.02,0.03-0.04,0.05-0.07c0.07-0.1-0.14,0.17-0.06,0.07c0.08-0.1,0.17-0.2,0.26-0.29
				c0.05-0.05,0.11-0.1,0.16-0.15c0.03-0.02,0.06-0.05,0.08-0.07c0.09-0.08-0.18,0.13-0.07,0.06c0.12-0.08,0.24-0.17,0.37-0.24
				c0.06-0.04,0.13-0.07,0.2-0.1c0.2-0.09-0.2,0.07,0.01,0c0.15-0.05,0.3-0.1,0.45-0.13c-0.38-0.5-0.76-0.99-1.15-1.49
				c-0.16,0.28-0.32,0.56-0.51,0.82c-0.04,0.06-0.09,0.12-0.13,0.18c-0.02,0.03-0.04,0.05-0.06,0.08c0.01-0.02,0.15-0.19,0.04-0.05
				c-0.1,0.13-0.2,0.25-0.31,0.37c-0.21,0.23-0.42,0.45-0.65,0.66c-0.05,0.05-0.11,0.1-0.17,0.15c-0.09,0.09,0.17-0.12,0.06-0.04
				c-0.03,0.02-0.05,0.04-0.08,0.05c-0.03,0.02-0.07,0.04-0.11,0.07c-0.07,0.05-0.13,0.01,0.08-0.02c-0.09,0.02-0.33,0.05-0.01,0.02
				c-0.03,0-0.14-0.01,0.02,0.01c0.04,0,0.27,0.1,0.2,0.06c-0.09-0.06,0.13,0.11,0.12,0.09c-0.11-0.09,0.09,0.1,0.08,0.11
				c0,0-0.03-0.05-0.03-0.05c-0.06-0.1,0.09,0.24,0.06,0.12c-0.06-0.19,0,0.25,0,0.05c0-0.02-0.01-0.15,0.01-0.16
				c0.01-0.01-0.06,0.29-0.01,0.13c0.01-0.02,0.01-0.05,0.02-0.07c0.01-0.03,0.03-0.14,0.05-0.16c0.01-0.01-0.12,0.25-0.05,0.11
				c0.02-0.03,0.03-0.06,0.05-0.1c0.07-0.13,0.16-0.25,0.24-0.37c0.11-0.15-0.03,0.05-0.04,0.05c0.01,0,0.08-0.1,0.08-0.1
				c0.05-0.06,0.11-0.13,0.17-0.19c0.21-0.23,0.44-0.44,0.67-0.65c0.07-0.06,0.14-0.13,0.22-0.19c0.07-0.06,0.25-0.16,0-0.01
				c0.13-0.08,0.25-0.16,0.38-0.23c0.08-0.04,0.13-0.01-0.09,0.04c0.03-0.01,0.07-0.02,0.1-0.03c0,0,0.09-0.03,0.1-0.02
				c0.01,0.01-0.27,0.01-0.12,0.02c-0.01,0,0.09,0,0.09,0c-0.06-0.01-0.12-0.02-0.18-0.02c0.07,0.02,0.06,0.01-0.03-0.02
				c-0.15-0.07-0.07-0.03-0.04-0.01c0.15,0.08-0.18-0.17-0.06-0.03c0.36,0.39,1.07,0.4,1.44,0C26.72,73.96,26.72,73.35,26.34,72.94
				L26.34,72.94z"/>
		</g>
	</g>
	<g>
		<g>
			<path d="M3.19,69.6c0.01,0.24,0.01,0.48,0.02,0.72c-0.01,0.14,0.02,0.27,0.09,0.39c0.04,0.13,0.11,0.23,0.21,0.33
				c0.09,0.1,0.2,0.17,0.33,0.21c0.12,0.06,0.25,0.09,0.39,0.09c0.09-0.01,0.18-0.02,0.27-0.04c0.17-0.05,0.32-0.14,0.45-0.26
				c0.05-0.07,0.11-0.14,0.16-0.21c0.09-0.16,0.14-0.33,0.14-0.51c-0.01-0.24-0.01-0.48-0.02-0.72c0.01-0.14-0.02-0.27-0.09-0.39
				c-0.04-0.13-0.11-0.23-0.21-0.33c-0.09-0.1-0.2-0.17-0.33-0.21c-0.12-0.06-0.25-0.09-0.39-0.09c-0.09,0.01-0.18,0.02-0.27,0.04
				c-0.17,0.05-0.32,0.14-0.45,0.26c-0.05,0.07-0.11,0.14-0.16,0.21C3.23,69.25,3.19,69.42,3.19,69.6L3.19,69.6z"/>
		</g>
	</g>
	<g>
		<g>
			<path d="M3.4,69.62c0.01,0,0.01,0.01,0.02,0.01c-0.07-0.05-0.14-0.11-0.21-0.16c0.02,0.02,0.05,0.04,0.07,0.07
				c-0.05-0.07-0.11-0.14-0.16-0.21c0.03,0.04,0.05,0.08,0.07,0.13c-0.03-0.08-0.07-0.16-0.1-0.24c0.03,0.08,0.05,0.16,0.07,0.24
				c0.01,0.04,0.02,0.09,0.04,0.13c0.04,0.1,0.08,0.2,0.12,0.29c0.01,0.02,0.02,0.04,0.03,0.06c0.06,0.12,0.15,0.21,0.26,0.29
				c0.1,0.09,0.21,0.15,0.35,0.18c0.14,0.04,0.27,0.05,0.41,0.02c0.14-0.01,0.26-0.05,0.38-0.12c0.07-0.05,0.14-0.11,0.21-0.16
				c0.13-0.13,0.21-0.28,0.26-0.45c0.01-0.09,0.02-0.18,0.04-0.27c0-0.18-0.05-0.35-0.14-0.51c-0.01-0.02-0.03-0.05-0.04-0.07
				c0.03,0.08,0.07,0.16,0.1,0.24c-0.05-0.12-0.07-0.24-0.11-0.36c-0.04-0.11-0.08-0.21-0.13-0.31c-0.01-0.03-0.03-0.05-0.04-0.07
				c-0.03-0.05-0.07-0.09-0.1-0.13c-0.03-0.04-0.07-0.09-0.1-0.13c-0.01-0.01-0.02-0.02-0.03-0.03c-0.07-0.06-0.15-0.12-0.23-0.18
				c-0.12-0.07-0.24-0.11-0.38-0.12c-0.14-0.03-0.27-0.02-0.41,0.02c-0.13,0.03-0.25,0.09-0.35,0.18c-0.11,0.07-0.2,0.17-0.26,0.29
				c-0.03,0.08-0.07,0.16-0.1,0.24c-0.05,0.18-0.05,0.36,0,0.54c0.03,0.08,0.07,0.16,0.1,0.24C3.12,69.41,3.24,69.53,3.4,69.62
				L3.4,69.62z"/>
		</g>
	</g>
	<g>
		<g>
			<path d="M3.14,69.19c0.09,0.13,0.18,0.25,0.27,0.37c0.08,0.11,0.18,0.22,0.23,0.35c-0.03-0.08-0.07-0.16-0.1-0.24
				c0.02,0.05,0.03,0.1,0.04,0.16c-0.01-0.09-0.02-0.18-0.04-0.27c0.02,0.16,0,0.31,0.02,0.47c-0.01,0.14,0.02,0.27,0.09,0.39
				c0.04,0.13,0.11,0.23,0.21,0.33c0.09,0.1,0.2,0.17,0.33,0.21c0.12,0.06,0.25,0.09,0.39,0.09c0.26-0.01,0.54-0.1,0.72-0.3
				c0.05-0.07,0.11-0.14,0.16-0.21c0.09-0.16,0.14-0.33,0.14-0.51c-0.01-0.13,0-0.25-0.01-0.38c-0.01-0.3-0.07-0.56-0.21-0.83
				c-0.06-0.11-0.15-0.22-0.23-0.32c-0.08-0.11-0.16-0.23-0.24-0.34c-0.06-0.12-0.15-0.21-0.26-0.29c-0.1-0.09-0.21-0.15-0.35-0.18
				c-0.14-0.04-0.27-0.05-0.41-0.02c-0.14,0.01-0.26,0.05-0.38,0.12c-0.22,0.14-0.41,0.35-0.47,0.61
				C2.98,68.67,2.98,68.97,3.14,69.19L3.14,69.19z"/>
		</g>
	</g>
	<g>
		<g>
			<path d="M3.24,69.38c0.04,0.02,0.08,0.05,0.11,0.08c-0.07-0.05-0.14-0.11-0.21-0.16c0.08,0.07,0.16,0.15,0.22,0.23
				c-0.05-0.07-0.11-0.14-0.16-0.21c0.13,0.18,0.24,0.37,0.36,0.56c0.12,0.2,0.25,0.39,0.34,0.6c-0.03-0.08-0.07-0.16-0.1-0.24
				c0.05,0.11,0.07,0.22,0.09,0.34c-0.01-0.09-0.02-0.18-0.04-0.27c0.03,0.21,0.02,0.41-0.01,0.61c0.01-0.09,0.02-0.18,0.04-0.27
				c-0.02,0.15-0.05,0.31-0.08,0.46c-0.05,0.27-0.04,0.54,0.1,0.78c0.12,0.21,0.36,0.41,0.61,0.47c0.51,0.12,1.14-0.15,1.25-0.71
				c0.07-0.37,0.15-0.74,0.14-1.12c-0.01-0.45-0.12-0.87-0.34-1.26C5.24,68.67,4.87,68,4.27,67.62c-0.45-0.28-1.14-0.11-1.39,0.36
				C2.61,68.49,2.76,69.08,3.24,69.38L3.24,69.38z"/>
		</g>
	</g>
	<g>
		<g>
			<path d="M4.74,70.74c1.31,0,1.31-2.03,0-2.03C3.44,68.71,3.43,70.74,4.74,70.74L4.74,70.74z"/>
		</g>
	</g>
	<g>
		<g>
			<path d="M4.88,71.47c1.31,0,1.31-2.03,0-2.03C3.58,69.44,3.58,71.47,4.88,71.47L4.88,71.47z"/>
		</g>
	</g>
	<g>
		<g>
			<path d="M4.84,71.81c1.31,0,1.31-2.03,0-2.03C3.53,69.77,3.53,71.81,4.84,71.81L4.84,71.81z"/>
		</g>
	</g>
	<g>
		<g>
			<path d="M4.88,71.82c1.31,0,1.31-2.03,0-2.03C3.58,69.79,3.57,71.82,4.88,71.82L4.88,71.82z"/>
		</g>
	</g>
	<g>
		<g>
			<path d="M4.95,71.83c1.31,0,1.31-2.03,0-2.03C3.65,69.79,3.64,71.83,4.95,71.83L4.95,71.83z"/>
		</g>
	</g>
	<g>
		<g>
			<path d="M10.5,68.64c-0.09,0.31-0.18,0.63-0.25,0.95c-0.03,0.16-0.07,0.32-0.09,0.48c-0.02,0.14-0.05,0.28-0.05,0.43
				c0.01,0.25,0.06,0.44,0.18,0.66c0.17,0.31,0.53,0.5,0.88,0.5c0.37,0,0.69-0.2,0.88-0.5c0.46-0.74,0.51-1.62,0.52-2.47
				c0-0.26-0.12-0.54-0.3-0.72c-0.18-0.18-0.47-0.31-0.72-0.3c-0.26,0.01-0.54,0.1-0.72,0.3c-0.18,0.2-0.29,0.44-0.3,0.72
				c0,0.32-0.01,0.64-0.05,0.95c0.01-0.09,0.02-0.18,0.04-0.27c-0.03,0.25-0.09,0.49-0.19,0.72c0.03-0.08,0.07-0.16,0.1-0.24
				c-0.04,0.1-0.09,0.19-0.15,0.29c0.58,0,1.17,0,1.75,0c0-0.01-0.01-0.02-0.01-0.03c0.03,0.08,0.07,0.16,0.1,0.24
				c-0.01-0.03-0.02-0.06-0.02-0.09c0.01,0.09,0.02,0.18,0.04,0.27c0-0.05,0-0.1,0-0.16c-0.01,0.09-0.02,0.18-0.04,0.27
				c0.07-0.49,0.2-0.98,0.34-1.46c0.07-0.25,0.03-0.56-0.1-0.78c-0.12-0.21-0.36-0.41-0.61-0.47c-0.26-0.06-0.55-0.05-0.78,0.1
				C10.75,68.18,10.58,68.38,10.5,68.64L10.5,68.64z"/>
		</g>
	</g>
	<g>
		<g>
			<path d="M25.81,74.86c1.31,0,1.31-2.03,0-2.03C24.5,72.83,24.5,74.86,25.81,74.86L25.81,74.86z"/>
		</g>
	</g>
	<g>
		<g>
			<path d="M25.42,74.57c0.04,0,0.08,0,0.11,0c-0.09-0.01-0.18-0.02-0.27-0.04c0.05,0.01,0.11,0.02,0.16,0.04
				c-0.08-0.03-0.16-0.07-0.24-0.1c0.05,0.02,0.09,0.05,0.13,0.08c-0.07-0.05-0.14-0.11-0.21-0.16c0.04,0.03,0.07,0.06,0.1,0.1
				c-0.05-0.07-0.11-0.14-0.16-0.21c0.03,0.04,0.06,0.09,0.08,0.14c-0.03-0.08-0.07-0.16-0.1-0.24c0.02,0.05,0.03,0.1,0.04,0.16
				c-0.01-0.09-0.02-0.18-0.04-0.27c0,0.02,0,0.03,0,0.05c-0.01,0.14,0.02,0.27,0.09,0.39c0.04,0.13,0.11,0.23,0.21,0.33
				c0.09,0.1,0.2,0.17,0.33,0.21c0.12,0.06,0.25,0.09,0.39,0.09c0.09-0.01,0.18-0.02,0.27-0.04c0.17-0.05,0.32-0.14,0.45-0.26
				c0.05-0.07,0.11-0.14,0.16-0.21c0.09-0.16,0.14-0.33,0.14-0.51c-0.01-0.13-0.02-0.26-0.05-0.38c-0.01-0.02-0.01-0.04-0.02-0.06
				c-0.04-0.1-0.08-0.2-0.12-0.29c-0.02-0.04-0.04-0.07-0.06-0.1c-0.06-0.08-0.12-0.17-0.19-0.25c-0.01-0.02-0.03-0.03-0.05-0.05
				c-0.09-0.08-0.19-0.17-0.3-0.23c-0.11-0.06-0.23-0.11-0.35-0.15c-0.04-0.01-0.08-0.02-0.12-0.03c-0.12-0.02-0.26-0.05-0.39-0.04
				c-0.14-0.01-0.27,0.02-0.39,0.09c-0.13,0.04-0.23,0.11-0.33,0.21c-0.1,0.09-0.17,0.2-0.21,0.33c-0.06,0.12-0.09,0.25-0.09,0.39
				c0.01,0.09,0.02,0.18,0.04,0.27c0.05,0.17,0.14,0.32,0.26,0.45c0.07,0.05,0.14,0.11,0.21,0.16
				C25.07,74.52,25.24,74.57,25.42,74.57L25.42,74.57z"/>
		</g>
	</g>
</g>
<g class="footprint">
	<g>
		<path d="M38,49.96c-1.45,0.72-2.69,0.89-4.16,0.7c-1.53-0.2-3.08-0.98-4.56-0.53c-1.51,0.46-2.36,2.02-2.95,3.48
			c-0.26,0.64-0.5,1.3-0.52,1.99c-0.08,2.04,1.79,3.73,3.77,4.18c1.99,0.45,4.05-0.04,6.03-0.53c0.83-0.2,1.66-0.41,2.43-0.77
			c1.73-0.8,3.03-2.33,3.99-3.98c0.22-0.39,0.44-0.79,0.49-1.24c0.12-0.93-0.52-1.76-1.24-2.37c-0.73-0.62-1.61-0.96-2.62-0.97"/>
	</g>
	<g>
		<g>
			<path d="M29.32,43.66c0.04,0.02,0.08,0.03,0.12,0.05c-0.08-0.05-0.05-0.03,0.07,0.06c-0.11-0.1,0.06,0.07,0.05,0.07
				c-0.04,0-0.09-0.18-0.12-0.21c0.11,0.12,0.05,0.13,0.01,0.02c-0.01-0.03-0.02-0.06-0.04-0.1c-0.06-0.15-0.12-0.3-0.19-0.44
				c-0.3-0.62-0.97-0.95-1.65-0.77c-0.63,0.17-1.08,0.77-1.34,1.34c-0.23,0.52-0.37,1.06-0.38,1.64c-0.02,1.07,0.38,2.16,1.12,2.93
				c0.23,0.24,0.51,0.47,0.83,0.57c0.48,0.14,0.93-0.02,1.3-0.33c0.46-0.38,0.78-0.95,0.93-1.52c0.37-1.39-0.17-2.78-0.97-3.9
				c-0.38-0.54-1.13-0.58-1.5,0c-0.64,0.99-0.96,2.19-0.89,3.37c0.02,0.37,0.25,0.75,0.64,0.84c0.41,0.09,0.74-0.07,0.98-0.4
				c0.36-0.49,0.62-1.05,0.79-1.64c0.12-0.44-0.15-0.96-0.61-1.07c-0.46-0.11-0.94,0.14-1.07,0.61c-0.03,0.12-0.07,0.24-0.12,0.36
				c-0.01,0.01-0.07,0.16-0.04,0.09c0.04-0.08-0.07,0.13-0.06,0.13c-0.11,0.23-0.25,0.44-0.4,0.64c0.54,0.15,1.08,0.29,1.62,0.44
				c-0.01-0.24-0.01-0.47,0.01-0.71c0.01-0.06,0.02-0.19,0-0.06c0.01-0.05,0.02-0.11,0.03-0.16c0.02-0.12,0.05-0.25,0.08-0.37
				c0.03-0.11,0.06-0.21,0.1-0.32c0.02-0.07,0.05-0.13,0.07-0.2c0.02-0.05,0.05-0.11,0.01-0.02c0.11-0.23,0.22-0.45,0.36-0.66
				c-0.5,0-1,0-1.5,0c0.13,0.18,0.25,0.36,0.36,0.55c0.06,0.09,0.11,0.19,0.16,0.29c0.03,0.05,0.05,0.1,0.07,0.15
				c0.01,0.01,0.1,0.25,0.04,0.09c0.07,0.21,0.14,0.41,0.19,0.63c0.01,0.05,0.02,0.11,0.03,0.16c-0.03-0.17-0.01-0.04,0-0.01
				c0.01,0.12,0.01,0.24,0.01,0.36c0,0.05-0.01,0.1-0.01,0.15c0-0.03,0.03-0.18,0-0.01c-0.02,0.09-0.04,0.19-0.07,0.28
				c-0.02,0.06-0.13,0.29-0.04,0.13c-0.05,0.09-0.1,0.19-0.16,0.28c-0.03,0.04-0.13,0.16-0.01,0.02c-0.03,0.04-0.06,0.07-0.1,0.11
				c-0.03,0.03-0.07,0.07-0.1,0.1c0.05-0.05,0.11-0.04,0.01-0.01c0.2-0.04,0.25-0.09,0.46,0c-0.03-0.01-0.13-0.09-0.02,0
				c-0.08-0.06-0.15-0.13-0.21-0.2c-0.03-0.03-0.06-0.06-0.09-0.1c-0.02-0.02-0.11-0.13-0.03-0.04c0.07,0.09-0.01-0.02-0.03-0.04
				c-0.02-0.04-0.05-0.07-0.07-0.11c-0.05-0.07-0.09-0.15-0.13-0.23c-0.02-0.04-0.04-0.08-0.06-0.12c-0.05-0.09,0.05,0.15,0,0
				c-0.06-0.18-0.12-0.35-0.15-0.53c-0.01-0.04-0.01-0.09-0.02-0.13c-0.02-0.12,0.01,0.16,0.01,0.04c-0.01-0.1-0.02-0.19-0.02-0.29
				c0-0.09,0-0.17,0.01-0.26c0-0.04,0.01-0.09,0.01-0.13c0.01-0.18,0,0.03-0.01,0.04c0.02-0.01,0.04-0.23,0.05-0.25
				c0.03-0.11,0.06-0.21,0.09-0.31c0.01-0.04,0.07-0.15-0.02,0.03c0.02-0.04,0.04-0.08,0.05-0.12c0.04-0.08,0.08-0.15,0.13-0.23
				c0.03-0.04,0.18-0.22,0.07-0.11c0.04-0.04,0.07-0.08,0.11-0.11c-0.06,0.05-0.07,0.05-0.02,0.02c0.06-0.03,0.04-0.03-0.04,0.01
				c-0.06,0-0.11,0.01-0.18,0c-0.04-0.02-0.08-0.04-0.12-0.05c0.06,0.04,0.05,0.03-0.01-0.02c-0.13-0.1,0.02,0.08-0.06-0.06
				c-0.07-0.13,0,0,0.01,0.03c0.02,0.03,0.03,0.06,0.05,0.09c0.09,0.16-0.07-0.19-0.01-0.02c0.03,0.07,0.06,0.15,0.08,0.22
				c0.22,0.54,0.49,0.94,1.06,1.16c0.43,0.16,0.97-0.18,1.07-0.61C30.04,44.23,29.78,43.83,29.32,43.66L29.32,43.66z"/>
		</g>
	</g>
	<g>
		<g>
			<path d="M36.03,41.47c-0.06-0.4-0.43-0.73-0.8-0.84c-0.44-0.13-0.89,0.01-1.23,0.31c-0.43,0.38-0.7,1.02-0.87,1.56
				c-0.34,1.06-0.32,2.29,0.08,3.32c0.24,0.62,0.57,1.36,1.25,1.59c0.6,0.2,1.3-0.06,1.8-0.4c0.95-0.64,1.6-1.74,1.57-2.91
				c-0.03-1.26-0.81-2.52-1.98-3.04c-0.33-0.15-0.66-0.17-0.96,0.07c-0.25,0.19-0.44,0.59-0.31,0.91c0.11,0.28,0.2,0.56,0.26,0.85
				c0.01,0.07,0.03,0.15,0.04,0.22c0.03,0.16-0.02-0.2,0.01,0.08c0.01,0.15,0.02,0.29,0.02,0.44c0,0.15,0,0.3-0.01,0.44
				c0,0.06-0.01,0.12-0.02,0.18c0.02-0.14-0.01,0.05-0.01,0.08c-0.05,0.31-0.14,0.6-0.25,0.9c0.56,0,1.12,0,1.67,0
				c-0.03-0.14-0.02-0.28,0.04-0.46c0.13-0.44-0.15-0.97-0.61-1.07c-0.47-0.11-0.93,0.14-1.07,0.61c-0.14,0.46-0.13,0.92-0.04,1.38
				c0.07,0.36,0.48,0.65,0.84,0.64c0.41-0.02,0.7-0.26,0.84-0.64c0.48-1.3,0.47-2.81-0.04-4.1c-0.43,0.33-0.85,0.65-1.28,0.98
				c0.16,0.07,0.3,0.16,0.45,0.25c-0.12-0.07,0.01,0.01,0.05,0.05c0.07,0.07,0.14,0.14,0.21,0.21c0.01,0.01,0.09,0.1,0.03,0.03
				c-0.07-0.08,0.03,0.04,0.04,0.06c0.04,0.06,0.08,0.12,0.12,0.19c0.04,0.07,0.08,0.15,0.12,0.23c-0.07-0.16,0.02,0.08,0.04,0.14
				c0.02,0.07,0.04,0.14,0.05,0.21c0.04,0.16,0,0.02,0-0.01c0,0.04,0.01,0.07,0.01,0.11c0,0.09,0,0.17,0,0.26
				c0,0.02-0.01,0.14,0,0.03c0.01-0.12-0.02,0.09-0.02,0.1c-0.02,0.07-0.03,0.14-0.06,0.21c-0.01,0.05-0.03,0.09-0.05,0.14
				c0-0.01,0.06-0.13,0.02-0.04c-0.08,0.15-0.16,0.3-0.26,0.44c-0.07,0.11,0.09-0.09,0,0c-0.03,0.03-0.05,0.06-0.07,0.08
				c-0.06,0.06-0.12,0.12-0.19,0.18c-0.03,0.02-0.06,0.05-0.08,0.07c0.01-0.01,0.11-0.07,0.03-0.03c-0.08,0.05-0.16,0.11-0.25,0.15
				c-0.04,0.02-0.09,0.04-0.13,0.07c-0.09,0.04,0.03-0.01,0.04-0.02c-0.04,0.01-0.07,0.02-0.1,0.04c-0.05,0.01-0.15,0-0.08,0.03
				c0.03,0.01,0.08,0,0.11,0.01c0,0,0.28,0.11,0.16,0.08c-0.01-0.01-0.02-0.02-0.03-0.03c0.05,0.06,0.05,0.07,0.02,0.02
				c-0.03-0.04-0.06-0.09-0.08-0.14c-0.05-0.08-0.09-0.16-0.13-0.25c-0.02-0.04-0.09-0.22-0.04-0.09c-0.07-0.19-0.13-0.38-0.18-0.57
				c-0.02-0.09-0.04-0.18-0.05-0.27c-0.03-0.17,0,0.08-0.01-0.09c-0.01-0.2-0.02-0.4-0.01-0.6c0-0.09,0.01-0.19,0.02-0.28
				c-0.02,0.16,0,0.03,0-0.01c0.01-0.05,0.02-0.1,0.03-0.16c0.04-0.21,0.11-0.41,0.18-0.61c0-0.01,0.05-0.13,0.02-0.04
				c-0.04,0.09,0.06-0.12,0.06-0.11c0.04-0.08,0.09-0.17,0.13-0.25c0.03-0.05,0.06-0.09,0.08-0.14c0.03-0.04,0.03-0.04,0-0.01
				c-0.03,0.03-0.03,0.03,0.01,0c0.01-0.01,0.02-0.02,0.03-0.03c-0.06,0.04-0.12,0.07-0.19,0.11c-0.22,0.09-0.62-0.13-0.66-0.37
				c0.07,0.45,0.66,0.74,1.07,0.61C35.91,42.38,36.11,41.96,36.03,41.47L36.03,41.47z"/>
		</g>
	</g>
	<g>
		<g>
			<path d="M44.23,42.91c-2-0.5-3.87,0.8-4.73,2.55c-0.25,0.5-0.55,1.11-0.39,1.68c0.21,0.72,0.96,0.92,1.61,0.81
				c0.41-0.07,0.82-0.26,1.19-0.44c0.4-0.2,0.75-0.44,1.1-0.72c0.72-0.57,1.32-1.32,1.71-2.15c0.15-0.32,0.16-0.67-0.07-0.96
				c-0.21-0.27-0.58-0.41-0.91-0.31c-1.04,0.32-2.01,0.94-2.69,1.79c-0.15,0.19-0.25,0.37-0.25,0.61c0,0.21,0.09,0.47,0.25,0.61
				c0.32,0.29,0.92,0.38,1.23,0c0.14-0.18,0.29-0.34,0.46-0.5c0.08-0.07,0.16-0.14,0.24-0.21c0.13-0.11,0-0.04,0,0
				c0-0.01,0.15-0.1,0.16-0.11c0.18-0.12,0.36-0.23,0.56-0.33c0.01,0,0.17-0.09,0.18-0.08c0,0-0.18,0.07,0,0
				c0.11-0.04,0.22-0.08,0.34-0.12c-0.33-0.43-0.65-0.85-0.98-1.28c-0.14,0.29-0.3,0.57-0.49,0.84c-0.02,0.02-0.07,0.08-0.07,0.1
				c0,0,0.1-0.13,0.04-0.06c-0.05,0.06-0.1,0.13-0.16,0.19c-0.11,0.12-0.22,0.24-0.33,0.35c-0.11,0.11-0.22,0.2-0.34,0.3
				c-0.12,0.1,0.01-0.01,0.03-0.02c-0.03,0.02-0.07,0.05-0.1,0.07c-0.07,0.05-0.15,0.11-0.23,0.16c-0.13,0.08-0.26,0.16-0.39,0.23
				c-0.07,0.04-0.14,0.08-0.22,0.11c-0.03,0.01-0.05,0.03-0.08,0.04c-0.11,0.05-0.08,0.02,0.01,0c-0.15,0.03-0.31,0.12-0.46,0.16
				c-0.04,0.01-0.24,0.05-0.08,0.03c0.14-0.03,0.03-0.01-0.01-0.01c-0.07,0.01-0.19-0.04,0.06,0.01c-0.07-0.01-0.1-0.07,0.08,0.04
				c0.12,0.07,0.25,0.22,0.27,0.35c0,0.02-0.05,0.31,0.01,0.21c0.02-0.04,0.03-0.09,0.04-0.14c0.03-0.07,0.05-0.14,0.08-0.21
				c0.07-0.17-0.01,0.02-0.01,0.03c-0.01-0.02,0.06-0.12,0.07-0.15c0.07-0.15,0.15-0.29,0.23-0.44c0.04-0.08,0.09-0.15,0.14-0.22
				c0.02-0.04,0.05-0.07,0.07-0.11c0.01-0.02,0.13-0.17,0.05-0.07c-0.07,0.09,0.08-0.09,0.1-0.11c0.06-0.07,0.12-0.13,0.18-0.19
				c0.06-0.06,0.13-0.12,0.19-0.18c0.02-0.02,0.05-0.04,0.07-0.06c0.08-0.07-0.13,0.09,0.01,0c0.16-0.11,0.33-0.21,0.51-0.3
				c0.04-0.02,0.13-0.09-0.03,0.01c0.04-0.03,0.11-0.04,0.15-0.06c0.09-0.03,0.19-0.06,0.28-0.08c0.04-0.01,0.09-0.02,0.13-0.03
				c0.13-0.03,0,0.02-0.04,0c0.05,0.03,0.23-0.02,0.29-0.02c0.07,0,0.23-0.02,0.29,0.01c-0.09-0.05-0.13-0.03-0.04,0
				c0.06,0.01,0.13,0.03,0.19,0.04c0.44,0.11,0.96-0.14,1.07-0.61C44.94,43.53,44.7,43.03,44.23,42.91L44.23,42.91z"/>
		</g>
	</g>
	<g>
		<g>
			<path d="M47.5,47.1c-0.36-0.38-0.88-0.48-1.38-0.39c-0.4,0.08-0.75,0.31-1.06,0.56c-0.56,0.44-1.09,0.96-1.47,1.56
				c-0.42,0.67-0.59,1.64,0.02,2.25c0.38,0.38,0.98,0.48,1.47,0.29c0.41-0.17,0.74-0.44,1.06-0.75c0.59-0.57,1.1-1.24,1.5-1.96
				c0.17-0.31,0.15-0.68-0.07-0.96c-0.22-0.28-0.56-0.39-0.91-0.31c-0.65,0.14-1.26,0.48-1.74,0.94c-0.24,0.22-0.44,0.48-0.61,0.76
				c-0.21,0.34-0.39,0.74-0.4,1.15c-0.01,0.48,0.25,0.98,0.69,1.19c0.38,0.18,0.79,0.2,1.19,0.08c0.63-0.19,1.17-0.66,1.57-1.17
				c0.46-0.59,0.81-1.28,0.92-2.04c0.03-0.24,0.04-0.45-0.09-0.67c-0.11-0.18-0.31-0.35-0.52-0.4c-0.22-0.05-0.47-0.04-0.67,0.09
				c-0.18,0.11-0.37,0.3-0.4,0.52c-0.03,0.23-0.08,0.45-0.16,0.67c-0.02,0.05-0.04,0.11-0.06,0.16c-0.04,0.1,0.08-0.17,0.03-0.07
				c-0.01,0.02-0.02,0.04-0.03,0.07c-0.05,0.11-0.11,0.22-0.18,0.32c-0.03,0.05-0.06,0.1-0.09,0.14c-0.02,0.03-0.14,0.19-0.05,0.07
				c0.09-0.11-0.02,0.02-0.04,0.05c-0.04,0.05-0.09,0.1-0.13,0.15c-0.08,0.08-0.16,0.16-0.25,0.24c-0.02,0.02-0.04,0.03-0.06,0.05
				c-0.11,0.09,0.05-0.04,0.06-0.04c-0.05,0.03-0.11,0.08-0.16,0.11c-0.04,0.03-0.08,0.05-0.13,0.08c-0.01,0-0.05,0.03-0.05,0.03
				c-0.01-0.01,0.2-0.07,0.11-0.05c-0.05,0.01-0.09,0.03-0.14,0.04c-0.03,0.01-0.05,0.01-0.08,0.02c-0.12,0.03,0.11-0.02,0.11-0.02
				c0,0.01-0.26-0.02-0.04,0.01c0.16,0.02,0.07,0.01,0.04,0c-0.11-0.04,0.11,0.05,0.11,0.05c0,0-0.04-0.02-0.04-0.03
				c-0.06-0.04,0.13,0.11,0.15,0.14c0.09,0.13,0.04,0.06,0.03,0.03c0.04,0.09,0.06,0.16,0.06,0.26c-0.01-0.14-0.01,0.05-0.02,0.07
				c0.01-0.02,0.01-0.05,0.02-0.08c0.01-0.03,0.02-0.07,0.03-0.1c0.02-0.09-0.04,0.09-0.04,0.09c0.06-0.1,0.1-0.21,0.16-0.31
				c0.03-0.05,0.06-0.09,0.09-0.14c0.01-0.02,0.03-0.04,0.04-0.06c0.06-0.09-0.12,0.15-0.05,0.06c0.07-0.08,0.14-0.17,0.22-0.24
				c0.04-0.04,0.09-0.09,0.14-0.13c0.02-0.02,0.05-0.04,0.07-0.06c0.08-0.07-0.15,0.11-0.06,0.05c0.1-0.07,0.21-0.14,0.32-0.2
				c0.06-0.03,0.11-0.06,0.17-0.09c0.17-0.08-0.17,0.06,0.01,0c0.13-0.05,0.25-0.08,0.39-0.11c-0.33-0.43-0.65-0.85-0.98-1.28
				c-0.13,0.24-0.28,0.47-0.44,0.7c-0.04,0.05-0.07,0.1-0.11,0.16c-0.02,0.02-0.04,0.04-0.05,0.07c0.01-0.02,0.13-0.16,0.03-0.05
				c-0.09,0.11-0.17,0.21-0.26,0.32c-0.18,0.2-0.36,0.39-0.56,0.57c-0.05,0.04-0.1,0.08-0.14,0.13c-0.08,0.08,0.14-0.1,0.05-0.04
				c-0.02,0.01-0.04,0.03-0.07,0.05c-0.03,0.02-0.06,0.04-0.09,0.06c-0.06,0.04-0.11,0.01,0.07-0.02c-0.08,0.01-0.28,0.04-0.01,0.02
				c-0.03,0-0.12-0.01,0.02,0.01c0.03,0,0.23,0.09,0.17,0.05c-0.08-0.05,0.12,0.09,0.1,0.08c-0.09-0.08,0.07,0.08,0.07,0.09
				c0,0-0.03-0.04-0.03-0.05c-0.05-0.09,0.08,0.2,0.05,0.11c-0.05-0.16,0,0.22,0,0.04c0-0.02-0.01-0.13,0.01-0.14
				c0.01-0.01-0.05,0.25-0.01,0.11c0.01-0.02,0.01-0.04,0.01-0.06c0.01-0.02,0.02-0.12,0.05-0.14c0.01,0-0.1,0.22-0.04,0.1
				c0.02-0.03,0.03-0.06,0.04-0.08c0.06-0.11,0.13-0.22,0.21-0.32c0.09-0.13-0.03,0.05-0.04,0.05c0.01,0,0.07-0.09,0.07-0.08
				c0.05-0.06,0.1-0.11,0.14-0.16c0.18-0.19,0.37-0.37,0.57-0.55c0.06-0.05,0.12-0.11,0.18-0.16c0.06-0.05,0.22-0.14,0-0.01
				c0.11-0.06,0.21-0.14,0.33-0.2c0.06-0.03,0.11-0.01-0.08,0.03c0.03-0.01,0.06-0.02,0.09-0.03c0,0,0.08-0.03,0.08-0.02
				c0.01,0-0.23,0.01-0.11,0.02c-0.01,0,0.08,0,0.08,0c-0.05-0.01-0.1-0.01-0.15-0.02c0.06,0.02,0.05,0.01-0.03-0.02
				c-0.13-0.06-0.06-0.03-0.03-0.01c0.13,0.07-0.16-0.14-0.05-0.03c0.31,0.33,0.92,0.34,1.23,0C47.83,47.97,47.83,47.45,47.5,47.1
				L47.5,47.1z"/>
		</g>
	</g>
	<g>
		<g>
			<path d="M27.72,44.24c0.01,0.2,0.01,0.41,0.02,0.61c0,0.12,0.02,0.23,0.07,0.33c0.04,0.11,0.09,0.2,0.18,0.28
				c0.08,0.08,0.17,0.14,0.28,0.18c0.1,0.05,0.21,0.08,0.33,0.07c0.08-0.01,0.15-0.02,0.23-0.03c0.15-0.04,0.27-0.12,0.38-0.22
				c0.05-0.06,0.09-0.12,0.14-0.18c0.08-0.14,0.12-0.28,0.12-0.44c-0.01-0.2-0.01-0.41-0.02-0.61c0-0.12-0.02-0.23-0.07-0.33
				c-0.04-0.11-0.09-0.2-0.18-0.28c-0.08-0.08-0.17-0.14-0.28-0.18c-0.1-0.05-0.21-0.08-0.33-0.07c-0.08,0.01-0.15,0.02-0.23,0.03
				c-0.15,0.04-0.27,0.12-0.38,0.22c-0.05,0.06-0.09,0.12-0.14,0.18C27.76,43.94,27.72,44.08,27.72,44.24L27.72,44.24z"/>
		</g>
	</g>
	<g>
		<g>
			<path d="M27.9,44.26c0,0,0.01,0.01,0.01,0.01c-0.06-0.05-0.12-0.09-0.18-0.14c0.02,0.02,0.04,0.03,0.06,0.06
				c-0.05-0.06-0.09-0.12-0.14-0.18c0.03,0.03,0.05,0.07,0.06,0.11c-0.03-0.07-0.06-0.14-0.09-0.21c0.03,0.07,0.04,0.14,0.06,0.21
				c0.01,0.04,0.02,0.07,0.03,0.11c0.03,0.08,0.07,0.17,0.1,0.25c0.01,0.02,0.02,0.04,0.03,0.05c0.05,0.1,0.13,0.18,0.22,0.24
				c0.08,0.08,0.18,0.13,0.3,0.16c0.12,0.04,0.23,0.04,0.35,0.02c0.12-0.01,0.22-0.04,0.32-0.1c0.06-0.05,0.12-0.09,0.18-0.14
				c0.11-0.11,0.18-0.24,0.22-0.38c0.01-0.08,0.02-0.15,0.03-0.23c0-0.16-0.04-0.3-0.12-0.44c-0.01-0.02-0.02-0.04-0.03-0.06
				c0.03,0.07,0.06,0.14,0.09,0.21c-0.04-0.1-0.06-0.21-0.09-0.31c-0.03-0.09-0.07-0.18-0.11-0.27c-0.01-0.02-0.02-0.04-0.03-0.06
				c-0.03-0.04-0.06-0.08-0.09-0.11c-0.03-0.03-0.06-0.08-0.09-0.11c-0.01-0.01-0.02-0.02-0.03-0.02c-0.06-0.05-0.13-0.11-0.2-0.15
				c-0.1-0.06-0.21-0.1-0.32-0.1c-0.12-0.03-0.23-0.02-0.35,0.02c-0.11,0.03-0.21,0.08-0.3,0.16c-0.09,0.06-0.17,0.14-0.22,0.24
				c-0.03,0.07-0.06,0.14-0.09,0.21c-0.04,0.15-0.04,0.31,0,0.46c0.03,0.07,0.06,0.14,0.09,0.21C27.66,44.08,27.77,44.18,27.9,44.26
				L27.9,44.26z"/>
		</g>
	</g>
	<g>
		<g>
			<path d="M27.68,43.89c0.07,0.11,0.15,0.21,0.23,0.32c0.07,0.1,0.15,0.19,0.2,0.3c-0.03-0.07-0.06-0.14-0.09-0.21
				c0.02,0.04,0.03,0.09,0.03,0.13c-0.01-0.08-0.02-0.15-0.03-0.23c0.02,0.13,0,0.27,0.01,0.4c0,0.12,0.02,0.23,0.07,0.33
				c0.04,0.11,0.09,0.2,0.18,0.28c0.08,0.08,0.17,0.14,0.28,0.18c0.1,0.05,0.21,0.08,0.33,0.07c0.22-0.01,0.46-0.08,0.61-0.25
				c0.05-0.06,0.09-0.12,0.14-0.18c0.08-0.14,0.12-0.28,0.12-0.44c-0.01-0.11,0-0.22-0.01-0.32c-0.01-0.26-0.06-0.48-0.18-0.71
				c-0.05-0.1-0.13-0.18-0.19-0.27c-0.07-0.1-0.14-0.19-0.21-0.29c-0.05-0.1-0.13-0.18-0.22-0.24c-0.08-0.08-0.18-0.13-0.3-0.16
				c-0.12-0.04-0.23-0.04-0.35-0.02c-0.12,0.01-0.22,0.04-0.32,0.1c-0.19,0.12-0.35,0.3-0.4,0.52
				C27.54,43.44,27.54,43.7,27.68,43.89L27.68,43.89z"/>
		</g>
	</g>
	<g>
		<g>
			<path d="M27.76,44.05c0.03,0.02,0.07,0.04,0.1,0.07c-0.06-0.05-0.12-0.09-0.18-0.14c0.07,0.06,0.13,0.13,0.19,0.2
				c-0.05-0.06-0.09-0.12-0.14-0.18c0.11,0.15,0.21,0.32,0.31,0.48c0.1,0.17,0.21,0.33,0.29,0.51c-0.03-0.07-0.06-0.14-0.09-0.21
				c0.04,0.09,0.06,0.19,0.08,0.29c-0.01-0.08-0.02-0.15-0.03-0.23c0.02,0.18,0.01,0.35-0.01,0.52c0.01-0.08,0.02-0.15,0.03-0.23
				c-0.02,0.13-0.04,0.26-0.07,0.39c-0.05,0.23-0.03,0.46,0.09,0.67c0.11,0.18,0.31,0.35,0.52,0.4c0.43,0.1,0.97-0.13,1.07-0.61
				c0.06-0.31,0.13-0.63,0.12-0.95c0-0.38-0.1-0.74-0.29-1.07c-0.29-0.52-0.61-1.09-1.12-1.41c-0.39-0.24-0.97-0.1-1.19,0.31
				C27.23,43.29,27.35,43.8,27.76,44.05L27.76,44.05z"/>
		</g>
	</g>
	<g>
		<g>
			<path d="M29.05,45.21c1.12,0,1.12-1.74,0-1.74C27.93,43.48,27.93,45.21,29.05,45.21L29.05,45.21z"/>
		</g>
	</g>
	<g>
		<g>
			<path d="M29.17,45.84c1.12,0,1.12-1.74,0-1.74C28.05,44.1,28.05,45.84,29.17,45.84L29.17,45.84z"/>
		</g>
	</g>
	<g>
		<g>
			<path d="M29.13,46.13c1.12,0,1.12-1.74,0-1.74C28.01,44.39,28.01,46.13,29.13,46.13L29.13,46.13z"/>
		</g>
	</g>
	<g>
		<g>
			<path d="M29.17,46.14c1.12,0,1.12-1.74,0-1.74C28.05,44.41,28.05,46.14,29.17,46.14L29.17,46.14z"/>
		</g>
	</g>
	<g>
		<g>
			<path d="M29.23,46.14c1.12,0,1.12-1.74,0-1.74C28.11,44.41,28.11,46.14,29.23,46.14L29.23,46.14z"/>
		</g>
	</g>
	<g>
		<g>
			<path d="M33.97,43.42c-0.08,0.27-0.15,0.54-0.21,0.81c-0.03,0.13-0.06,0.27-0.08,0.41c-0.02,0.12-0.04,0.24-0.04,0.36
				c0.01,0.21,0.05,0.38,0.15,0.56c0.14,0.27,0.45,0.43,0.75,0.43c0.31,0,0.59-0.17,0.75-0.43c0.39-0.63,0.44-1.39,0.45-2.11
				c0-0.22-0.1-0.46-0.25-0.61c-0.15-0.15-0.4-0.26-0.61-0.25c-0.22,0.01-0.46,0.08-0.61,0.25c-0.16,0.17-0.25,0.38-0.25,0.61
				c0,0.27-0.01,0.54-0.04,0.81c0.01-0.08,0.02-0.15,0.03-0.23c-0.03,0.21-0.08,0.42-0.16,0.61c0.03-0.07,0.06-0.14,0.09-0.21
				c-0.04,0.08-0.08,0.17-0.13,0.24c0.5,0,1,0,1.5,0c0-0.01-0.01-0.02-0.01-0.02c0.03,0.07,0.06,0.14,0.09,0.21
				c-0.01-0.03-0.02-0.05-0.02-0.07c0.01,0.08,0.02,0.15,0.03,0.23c0-0.05,0-0.09,0-0.13c-0.01,0.08-0.02,0.15-0.03,0.23
				c0.06-0.42,0.17-0.84,0.29-1.25c0.06-0.21,0.02-0.48-0.09-0.67c-0.11-0.18-0.31-0.35-0.52-0.4c-0.22-0.05-0.47-0.04-0.67,0.09
				C34.18,43.02,34.04,43.2,33.97,43.42L33.97,43.42z"/>
		</g>
	</g>
	<g>
		<g>
			<path d="M47.05,48.74c1.12,0,1.12-1.74,0-1.74C45.93,47,45.93,48.74,47.05,48.74L47.05,48.74z"/>
		</g>
	</g>
	<g>
		<g>
			<path d="M46.72,48.49c0.03,0,0.06,0,0.1,0c-0.08-0.01-0.15-0.02-0.23-0.03C46.63,48.47,46.68,48.48,46.72,48.49
				c-0.07-0.02-0.14-0.05-0.21-0.08c0.04,0.02,0.08,0.04,0.11,0.07c-0.06-0.05-0.12-0.09-0.18-0.14c0.03,0.03,0.06,0.05,0.09,0.09
				c-0.05-0.06-0.09-0.12-0.14-0.18c0.03,0.04,0.05,0.08,0.07,0.12c-0.03-0.07-0.06-0.14-0.09-0.21c0.02,0.04,0.03,0.09,0.04,0.13
				c-0.01-0.08-0.02-0.15-0.03-0.23c0,0.01,0,0.03,0,0.04c0,0.12,0.02,0.23,0.07,0.33c0.04,0.11,0.09,0.2,0.18,0.28
				c0.08,0.08,0.17,0.14,0.28,0.18c0.1,0.05,0.21,0.08,0.33,0.07c0.08-0.01,0.15-0.02,0.23-0.03c0.15-0.04,0.27-0.12,0.38-0.22
				c0.05-0.06,0.09-0.12,0.14-0.18c0.08-0.14,0.12-0.28,0.12-0.44c-0.01-0.11-0.02-0.22-0.05-0.33c0-0.02-0.01-0.04-0.02-0.05
				c-0.03-0.08-0.07-0.17-0.1-0.25c-0.01-0.03-0.03-0.06-0.05-0.09c-0.05-0.07-0.11-0.14-0.16-0.21c-0.01-0.01-0.03-0.03-0.04-0.04
				c-0.08-0.07-0.16-0.14-0.26-0.2c-0.09-0.05-0.2-0.09-0.3-0.13c-0.03-0.01-0.07-0.02-0.1-0.03c-0.1-0.02-0.23-0.04-0.34-0.04
				c-0.12,0-0.23,0.02-0.33,0.07c-0.11,0.04-0.2,0.09-0.28,0.18c-0.08,0.08-0.14,0.17-0.18,0.28c-0.05,0.1-0.08,0.21-0.07,0.33
				c0.01,0.08,0.02,0.15,0.03,0.23c0.04,0.15,0.12,0.27,0.22,0.38c0.06,0.05,0.12,0.09,0.18,0.14
				C46.42,48.45,46.56,48.49,46.72,48.49L46.72,48.49z"/>
		</g>
	</g>
</g>
<g class="footprint">
	<g>
		<path d="M18.52,27.47c-1.45,0.72-2.69,0.89-4.16,0.7c-1.53-0.2-3.08-0.98-4.56-0.53c-1.51,0.46-2.36,2.02-2.95,3.48
			c-0.26,0.64-0.5,1.3-0.52,1.99c-0.08,2.04,1.79,3.73,3.77,4.18s4.05-0.04,6.03-0.53c0.83-0.2,1.66-0.41,2.43-0.77
			c1.73-0.8,3.03-2.33,3.99-3.98c0.22-0.39,0.44-0.79,0.49-1.24c0.12-0.93-0.52-1.76-1.24-2.37c-0.73-0.62-1.61-0.96-2.62-0.97"/>
	</g>
	<g>
		<g>
			<path d="M9.84,21.16c0.04,0.02,0.08,0.03,0.12,0.05c-0.08-0.05-0.05-0.03,0.07,0.06c-0.11-0.1,0.06,0.07,0.05,0.07
				c-0.04,0-0.09-0.18-0.12-0.21c0.11,0.12,0.05,0.13,0.01,0.02c-0.01-0.03-0.02-0.06-0.04-0.1c-0.06-0.15-0.12-0.3-0.19-0.44
				c-0.3-0.62-0.97-0.95-1.65-0.77C7.46,20,7.01,20.6,6.76,21.17c-0.23,0.52-0.37,1.06-0.38,1.64c-0.02,1.07,0.38,2.16,1.12,2.93
				c0.23,0.24,0.51,0.47,0.83,0.57c0.48,0.14,0.93-0.02,1.3-0.33c0.46-0.38,0.78-0.95,0.93-1.52c0.37-1.39-0.17-2.78-0.97-3.9
				c-0.38-0.54-1.13-0.58-1.5,0c-0.64,0.99-0.96,2.19-0.89,3.37c0.02,0.37,0.25,0.75,0.64,0.84c0.41,0.09,0.74-0.07,0.98-0.4
				c0.36-0.49,0.62-1.05,0.79-1.64c0.12-0.44-0.15-0.96-0.61-1.07c-0.46-0.11-0.94,0.14-1.07,0.61c-0.03,0.12-0.07,0.24-0.12,0.36
				c-0.01,0.01-0.07,0.16-0.04,0.09c0.04-0.08-0.07,0.13-0.06,0.13c-0.11,0.23-0.25,0.44-0.4,0.64c0.54,0.15,1.08,0.29,1.62,0.44
				c-0.01-0.24-0.01-0.47,0.01-0.71c0.01-0.06,0.02-0.19,0-0.06c0.01-0.05,0.02-0.11,0.03-0.16c0.02-0.12,0.05-0.25,0.08-0.37
				c0.03-0.11,0.06-0.21,0.1-0.32c0.02-0.07,0.05-0.13,0.07-0.2c0.02-0.05,0.05-0.11,0.01-0.02c0.11-0.23,0.22-0.45,0.36-0.66
				c-0.5,0-1,0-1.5,0c0.13,0.18,0.25,0.36,0.36,0.55c0.06,0.09,0.11,0.19,0.16,0.29c0.03,0.05,0.05,0.1,0.07,0.15
				c0.01,0.01,0.1,0.25,0.04,0.09c0.07,0.21,0.14,0.41,0.19,0.63c0.01,0.05,0.02,0.11,0.03,0.16c-0.03-0.17-0.01-0.04,0-0.01
				c0.01,0.12,0.01,0.24,0.01,0.36c0,0.05-0.01,0.1-0.01,0.15c0-0.03,0.03-0.18,0-0.01c-0.02,0.09-0.04,0.19-0.07,0.28
				c-0.02,0.06-0.13,0.29-0.04,0.13c-0.05,0.09-0.1,0.19-0.16,0.28c-0.03,0.04-0.13,0.16-0.01,0.02c-0.03,0.04-0.06,0.07-0.1,0.11
				c-0.03,0.03-0.07,0.07-0.1,0.1c0.05-0.05,0.11-0.04,0.01-0.01c0.2-0.04,0.25-0.09,0.46,0c-0.03-0.01-0.13-0.09-0.02,0
				c-0.08-0.06-0.15-0.13-0.21-0.2c-0.03-0.03-0.06-0.06-0.09-0.1c-0.02-0.02-0.11-0.13-0.03-0.04c0.07,0.09-0.01-0.02-0.03-0.04
				c-0.02-0.04-0.05-0.07-0.07-0.11c-0.05-0.07-0.09-0.15-0.13-0.23c-0.02-0.04-0.04-0.08-0.06-0.12c-0.05-0.09,0.05,0.15,0,0
				c-0.06-0.18-0.12-0.35-0.15-0.53c-0.01-0.04-0.01-0.09-0.02-0.13c-0.02-0.12,0.01,0.16,0.01,0.04c-0.01-0.1-0.02-0.19-0.02-0.29
				c0-0.09,0-0.17,0.01-0.26c0-0.04,0.01-0.09,0.01-0.13c0.01-0.18,0,0.03-0.01,0.04c0.02-0.01,0.04-0.23,0.05-0.25
				c0.03-0.11,0.06-0.21,0.09-0.31c0.01-0.04,0.07-0.15-0.02,0.03c0.02-0.04,0.04-0.08,0.05-0.12c0.04-0.08,0.08-0.15,0.13-0.23
				c0.03-0.04,0.18-0.22,0.07-0.11c0.04-0.04,0.07-0.08,0.11-0.11c-0.06,0.05-0.07,0.05-0.02,0.02c0.06-0.03,0.04-0.03-0.04,0.01
				c-0.06,0-0.11,0.01-0.18,0c-0.04-0.02-0.08-0.04-0.12-0.05c0.06,0.04,0.05,0.03-0.01-0.02c-0.13-0.1,0.02,0.08-0.06-0.06
				c-0.07-0.13,0,0,0.01,0.03c0.02,0.03,0.03,0.06,0.05,0.09c0.09,0.16-0.07-0.19-0.01-0.02c0.03,0.07,0.06,0.15,0.08,0.22
				c0.22,0.54,0.49,0.94,1.06,1.16c0.43,0.16,0.97-0.18,1.07-0.61C10.56,21.74,10.3,21.34,9.84,21.16L9.84,21.16z"/>
		</g>
	</g>
	<g>
		<g>
			<path d="M16.55,18.98c-0.06-0.4-0.43-0.73-0.8-0.84c-0.44-0.13-0.89,0.01-1.23,0.31c-0.43,0.38-0.7,1.02-0.87,1.56
				c-0.34,1.06-0.32,2.29,0.08,3.32c0.24,0.62,0.57,1.36,1.25,1.59c0.6,0.2,1.3-0.06,1.8-0.4c0.95-0.64,1.6-1.74,1.57-2.91
				c-0.03-1.26-0.81-2.52-1.98-3.04c-0.33-0.15-0.66-0.17-0.96,0.07c-0.25,0.19-0.44,0.59-0.31,0.91c0.11,0.28,0.2,0.56,0.26,0.85
				c0.01,0.07,0.03,0.15,0.04,0.22c0.03,0.16-0.02-0.2,0.01,0.08c0.01,0.15,0.02,0.29,0.02,0.44c0,0.15,0,0.3-0.01,0.44
				c0,0.06-0.01,0.12-0.02,0.18c0.02-0.14-0.01,0.05-0.01,0.08c-0.05,0.31-0.14,0.6-0.25,0.9c0.56,0,1.12,0,1.67,0
				c-0.03-0.14-0.02-0.28,0.04-0.46c0.13-0.44-0.15-0.97-0.61-1.07c-0.47-0.11-0.93,0.14-1.07,0.61c-0.14,0.46-0.13,0.92-0.04,1.38
				c0.07,0.36,0.48,0.65,0.84,0.64c0.41-0.02,0.7-0.26,0.84-0.64c0.48-1.3,0.47-2.81-0.04-4.1c-0.43,0.33-0.85,0.65-1.28,0.98
				c0.16,0.07,0.3,0.16,0.45,0.25c-0.12-0.07,0.01,0.01,0.05,0.05c0.07,0.07,0.14,0.14,0.21,0.21c0.01,0.01,0.09,0.1,0.03,0.03
				c-0.07-0.08,0.03,0.04,0.04,0.06c0.04,0.06,0.08,0.12,0.12,0.19c0.04,0.07,0.08,0.15,0.12,0.23c-0.07-0.16,0.02,0.08,0.04,0.14
				c0.02,0.07,0.04,0.14,0.05,0.21c0.04,0.16,0,0.02,0-0.01c0,0.04,0.01,0.07,0.01,0.11c0,0.09,0,0.17,0,0.26
				c0,0.02-0.01,0.14,0,0.03c0.01-0.12-0.02,0.09-0.02,0.1c-0.02,0.07-0.03,0.14-0.06,0.21c-0.01,0.05-0.03,0.09-0.05,0.14
				c0-0.01,0.06-0.13,0.02-0.04c-0.08,0.15-0.16,0.3-0.26,0.44c-0.07,0.11,0.09-0.09,0,0c-0.03,0.03-0.05,0.06-0.07,0.08
				c-0.06,0.06-0.12,0.12-0.19,0.18c-0.03,0.02-0.06,0.05-0.08,0.07c0.01-0.01,0.11-0.07,0.03-0.03c-0.08,0.05-0.16,0.11-0.25,0.15
				c-0.04,0.02-0.09,0.04-0.13,0.07c-0.09,0.04,0.03-0.01,0.04-0.02c-0.04,0.01-0.07,0.02-0.1,0.04c-0.05,0.01-0.15,0-0.08,0.03
				c0.03,0.01,0.08,0,0.11,0.01c0,0,0.28,0.11,0.16,0.08c-0.01-0.01-0.02-0.02-0.03-0.03c0.05,0.06,0.05,0.07,0.02,0.02
				c-0.03-0.04-0.06-0.09-0.08-0.14c-0.05-0.08-0.09-0.16-0.13-0.25c-0.02-0.04-0.09-0.22-0.04-0.09c-0.07-0.19-0.13-0.38-0.18-0.57
				c-0.02-0.09-0.04-0.18-0.05-0.27c-0.03-0.17,0,0.08-0.01-0.09c-0.01-0.2-0.02-0.4-0.01-0.6c0-0.09,0.01-0.19,0.02-0.28
				c-0.02,0.16,0,0.03,0-0.01c0.01-0.05,0.02-0.1,0.03-0.16c0.04-0.21,0.11-0.41,0.18-0.61c0-0.01,0.05-0.13,0.02-0.04
				c-0.04,0.09,0.06-0.12,0.06-0.11c0.04-0.08,0.09-0.17,0.13-0.25c0.03-0.05,0.06-0.09,0.08-0.14c0.03-0.04,0.03-0.04,0-0.01
				c-0.03,0.03-0.03,0.03,0.01,0c0.01-0.01,0.02-0.02,0.03-0.03c-0.06,0.04-0.12,0.07-0.19,0.11c-0.22,0.09-0.62-0.13-0.66-0.37
				c0.07,0.45,0.66,0.74,1.07,0.61C16.43,19.89,16.62,19.46,16.55,18.98L16.55,18.98z"/>
		</g>
	</g>
	<g>
		<g>
			<path d="M24.74,20.42c-2-0.5-3.87,0.8-4.73,2.55c-0.25,0.5-0.55,1.11-0.39,1.68c0.21,0.72,0.96,0.92,1.61,0.81
				c0.41-0.07,0.82-0.26,1.19-0.44c0.4-0.2,0.75-0.44,1.1-0.72c0.72-0.57,1.32-1.32,1.71-2.15c0.15-0.32,0.16-0.67-0.07-0.96
				c-0.21-0.27-0.58-0.41-0.91-0.31c-1.04,0.32-2.01,0.94-2.69,1.79c-0.15,0.19-0.25,0.37-0.25,0.61c0,0.21,0.09,0.47,0.25,0.61
				c0.32,0.29,0.92,0.38,1.23,0c0.14-0.18,0.29-0.34,0.46-0.5c0.08-0.07,0.16-0.14,0.24-0.21c0.13-0.11,0-0.04,0,0
				c0-0.01,0.15-0.1,0.16-0.11c0.18-0.12,0.36-0.23,0.56-0.33c0.01,0,0.17-0.09,0.18-0.08c0,0-0.18,0.07,0,0
				c0.11-0.04,0.22-0.08,0.34-0.12c-0.33-0.43-0.65-0.85-0.98-1.28c-0.14,0.29-0.3,0.57-0.49,0.84c-0.02,0.02-0.07,0.08-0.07,0.1
				c0,0,0.1-0.13,0.04-0.06c-0.05,0.06-0.1,0.13-0.16,0.19c-0.11,0.12-0.22,0.24-0.33,0.35c-0.11,0.11-0.22,0.2-0.34,0.3
				c-0.12,0.1,0.01-0.01,0.03-0.02c-0.03,0.02-0.07,0.05-0.1,0.07c-0.07,0.05-0.15,0.11-0.23,0.16c-0.13,0.08-0.26,0.16-0.39,0.23
				c-0.07,0.04-0.14,0.08-0.22,0.11c-0.03,0.01-0.05,0.03-0.08,0.04c-0.11,0.05-0.08,0.02,0.01,0c-0.15,0.03-0.31,0.12-0.46,0.16
				c-0.04,0.01-0.24,0.05-0.08,0.03c0.14-0.03,0.03-0.01-0.01-0.01c-0.07,0.01-0.19-0.04,0.06,0.01c-0.07-0.01-0.1-0.07,0.08,0.04
				c0.12,0.07,0.25,0.22,0.27,0.35c0,0.02-0.05,0.31,0.01,0.21c0.02-0.04,0.03-0.09,0.04-0.14c0.03-0.07,0.05-0.14,0.08-0.21
				c0.07-0.17-0.01,0.02-0.01,0.03c-0.01-0.02,0.06-0.12,0.07-0.15c0.07-0.15,0.15-0.29,0.23-0.44c0.04-0.08,0.09-0.15,0.14-0.22
				c0.02-0.04,0.05-0.07,0.07-0.11c0.01-0.02,0.13-0.17,0.05-0.07c-0.07,0.09,0.08-0.09,0.1-0.11c0.06-0.07,0.12-0.13,0.18-0.19
				c0.06-0.06,0.13-0.12,0.19-0.18c0.02-0.02,0.05-0.04,0.07-0.06c0.08-0.07-0.13,0.09,0.01,0c0.16-0.11,0.33-0.21,0.51-0.3
				c0.04-0.02,0.13-0.09-0.03,0.01c0.04-0.03,0.11-0.04,0.15-0.06c0.09-0.03,0.19-0.06,0.28-0.08c0.04-0.01,0.09-0.02,0.13-0.03
				c0.13-0.03,0,0.02-0.04,0c0.05,0.03,0.23-0.02,0.29-0.02c0.07,0,0.23-0.02,0.29,0.01c-0.09-0.05-0.13-0.03-0.04,0
				c0.06,0.01,0.13,0.03,0.19,0.04c0.44,0.11,0.96-0.14,1.07-0.61C25.45,21.03,25.21,20.54,24.74,20.42L24.74,20.42z"/>
		</g>
	</g>
	<g>
		<g>
			<path d="M28.01,24.6c-0.36-0.38-0.88-0.48-1.38-0.39c-0.4,0.08-0.75,0.31-1.06,0.56c-0.56,0.44-1.09,0.96-1.47,1.56
				c-0.42,0.67-0.59,1.64,0.02,2.25c0.38,0.38,0.98,0.48,1.47,0.29c0.41-0.17,0.74-0.44,1.06-0.75c0.59-0.57,1.1-1.24,1.5-1.96
				c0.17-0.31,0.15-0.68-0.07-0.96c-0.22-0.28-0.56-0.39-0.91-0.31c-0.65,0.14-1.26,0.48-1.74,0.94c-0.24,0.22-0.44,0.48-0.61,0.76
				c-0.21,0.34-0.39,0.74-0.4,1.15c-0.01,0.48,0.25,0.98,0.69,1.19c0.38,0.18,0.79,0.2,1.19,0.08c0.63-0.19,1.17-0.66,1.57-1.17
				c0.46-0.59,0.81-1.28,0.92-2.04c0.03-0.24,0.04-0.45-0.09-0.67c-0.11-0.18-0.31-0.35-0.52-0.4c-0.22-0.05-0.47-0.04-0.67,0.09
				c-0.18,0.11-0.37,0.3-0.4,0.52c-0.03,0.23-0.08,0.45-0.16,0.67c-0.02,0.05-0.04,0.11-0.06,0.16c-0.04,0.1,0.08-0.17,0.03-0.07
				c-0.01,0.02-0.02,0.04-0.03,0.07c-0.05,0.11-0.11,0.22-0.18,0.32c-0.03,0.05-0.06,0.1-0.09,0.14c-0.02,0.03-0.14,0.19-0.05,0.07
				c0.09-0.11-0.02,0.02-0.04,0.05c-0.04,0.05-0.09,0.1-0.13,0.15c-0.08,0.08-0.16,0.16-0.25,0.24c-0.02,0.02-0.04,0.03-0.06,0.05
				c-0.11,0.09,0.05-0.04,0.06-0.04c-0.05,0.03-0.11,0.08-0.16,0.11c-0.04,0.03-0.08,0.05-0.13,0.08c-0.01,0-0.05,0.03-0.05,0.03
				c-0.01-0.01,0.2-0.07,0.11-0.05c-0.05,0.01-0.09,0.03-0.14,0.04c-0.03,0.01-0.05,0.01-0.08,0.02c-0.12,0.03,0.11-0.02,0.11-0.02
				c0,0.01-0.26-0.02-0.04,0.01c0.16,0.02,0.07,0.01,0.04,0c-0.11-0.04,0.11,0.05,0.11,0.05c0,0-0.04-0.02-0.04-0.03
				c-0.06-0.04,0.13,0.11,0.15,0.14c0.09,0.13,0.04,0.06,0.03,0.03c0.04,0.09,0.06,0.16,0.06,0.26c-0.01-0.14-0.01,0.05-0.02,0.07
				c0.01-0.02,0.01-0.05,0.02-0.08c0.01-0.03,0.02-0.07,0.03-0.1c0.02-0.09-0.04,0.09-0.04,0.09c0.06-0.1,0.1-0.21,0.16-0.31
				c0.03-0.05,0.06-0.09,0.09-0.14c0.01-0.02,0.03-0.04,0.04-0.06c0.06-0.09-0.12,0.15-0.05,0.06c0.07-0.08,0.14-0.17,0.22-0.24
				c0.04-0.04,0.09-0.09,0.14-0.13c0.02-0.02,0.05-0.04,0.07-0.06c0.08-0.07-0.15,0.11-0.06,0.05c0.1-0.07,0.21-0.14,0.32-0.2
				c0.06-0.03,0.11-0.06,0.17-0.09c0.17-0.08-0.17,0.06,0.01,0c0.13-0.05,0.25-0.08,0.39-0.11c-0.33-0.43-0.65-0.85-0.98-1.28
				c-0.13,0.24-0.28,0.47-0.44,0.7c-0.04,0.05-0.07,0.1-0.11,0.16c-0.02,0.02-0.04,0.04-0.05,0.07c0.01-0.02,0.13-0.16,0.03-0.05
				c-0.09,0.11-0.17,0.21-0.26,0.32c-0.18,0.2-0.36,0.39-0.56,0.57c-0.05,0.04-0.1,0.08-0.14,0.13c-0.08,0.08,0.14-0.1,0.05-0.04
				c-0.02,0.01-0.04,0.03-0.07,0.05c-0.03,0.02-0.06,0.04-0.09,0.06c-0.06,0.04-0.11,0.01,0.07-0.02c-0.08,0.01-0.28,0.04-0.01,0.02
				c-0.03,0-0.12-0.01,0.02,0.01c0.03,0,0.23,0.09,0.17,0.05c-0.08-0.05,0.12,0.09,0.1,0.08c-0.09-0.08,0.07,0.08,0.07,0.09
				c0,0-0.03-0.04-0.03-0.05c-0.05-0.09,0.08,0.2,0.05,0.11c-0.05-0.16,0,0.22,0,0.04c0-0.02-0.01-0.13,0.01-0.14
				c0.01-0.01-0.05,0.25-0.01,0.11c0.01-0.02,0.01-0.04,0.01-0.06c0.01-0.02,0.02-0.12,0.05-0.14c0.01,0-0.1,0.22-0.04,0.1
				c0.02-0.03,0.03-0.06,0.04-0.08c0.06-0.11,0.13-0.22,0.21-0.32c0.09-0.13-0.03,0.05-0.04,0.05c0.01,0,0.07-0.09,0.07-0.08
				c0.05-0.06,0.1-0.11,0.14-0.16c0.18-0.19,0.37-0.37,0.57-0.55c0.06-0.05,0.12-0.11,0.18-0.16c0.06-0.05,0.22-0.14,0-0.01
				c0.11-0.06,0.21-0.14,0.33-0.2c0.06-0.03,0.11-0.01-0.08,0.03c0.03-0.01,0.06-0.02,0.09-0.03c0,0,0.08-0.03,0.08-0.02
				c0.01,0-0.23,0.01-0.11,0.02c-0.01,0,0.08,0,0.08,0c-0.05-0.01-0.1-0.01-0.15-0.02c0.06,0.02,0.05,0.01-0.03-0.02
				c-0.13-0.06-0.06-0.03-0.03-0.01c0.13,0.07-0.16-0.14-0.05-0.03c0.31,0.33,0.92,0.34,1.23,0C28.34,25.47,28.35,24.96,28.01,24.6
				L28.01,24.6z"/>
		</g>
	</g>
	<g>
		<g>
			<path d="M8.23,21.75c0.01,0.2,0.01,0.41,0.02,0.61c0,0.12,0.02,0.23,0.07,0.33c0.04,0.11,0.09,0.2,0.18,0.28
				c0.08,0.08,0.17,0.14,0.28,0.18c0.1,0.05,0.21,0.08,0.33,0.07c0.08-0.01,0.15-0.02,0.23-0.03c0.15-0.04,0.27-0.12,0.38-0.22
				c0.05-0.06,0.09-0.12,0.14-0.18c0.08-0.14,0.12-0.28,0.12-0.44c-0.01-0.2-0.01-0.41-0.02-0.61c0-0.12-0.02-0.23-0.07-0.33
				c-0.04-0.11-0.09-0.2-0.18-0.28c-0.08-0.08-0.17-0.14-0.28-0.18c-0.1-0.05-0.21-0.08-0.33-0.07c-0.08,0.01-0.15,0.02-0.23,0.03
				c-0.15,0.04-0.27,0.12-0.38,0.22c-0.05,0.06-0.09,0.12-0.14,0.18C8.27,21.45,8.23,21.59,8.23,21.75L8.23,21.75z"/>
		</g>
	</g>
	<g>
		<g>
			<path d="M8.41,21.77c0,0,0.01,0.01,0.01,0.01c-0.06-0.05-0.12-0.09-0.18-0.14c0.02,0.02,0.04,0.03,0.06,0.06
				c-0.05-0.06-0.09-0.12-0.14-0.18c0.03,0.03,0.05,0.07,0.06,0.11c-0.03-0.07-0.06-0.14-0.09-0.21c0.03,0.07,0.04,0.14,0.06,0.21
				c0.01,0.04,0.02,0.07,0.03,0.11c0.03,0.08,0.07,0.17,0.1,0.25c0.01,0.02,0.02,0.04,0.03,0.05c0.05,0.1,0.13,0.18,0.22,0.24
				c0.08,0.08,0.18,0.13,0.3,0.16c0.12,0.04,0.23,0.04,0.35,0.02c0.12-0.01,0.22-0.04,0.32-0.1c0.06-0.05,0.12-0.09,0.18-0.14
				c0.11-0.11,0.18-0.24,0.22-0.38c0.01-0.08,0.02-0.15,0.03-0.23c0-0.16-0.04-0.3-0.12-0.44c-0.01-0.02-0.02-0.04-0.03-0.06
				c0.03,0.07,0.06,0.14,0.09,0.21C9.89,21.21,9.87,21.1,9.83,21c-0.03-0.09-0.07-0.18-0.11-0.27c-0.01-0.02-0.02-0.04-0.03-0.06
				c-0.03-0.04-0.06-0.08-0.09-0.11c-0.03-0.03-0.06-0.08-0.09-0.11c-0.01-0.01-0.02-0.02-0.03-0.02c-0.06-0.05-0.13-0.11-0.2-0.15
				c-0.1-0.06-0.21-0.1-0.32-0.1c-0.12-0.03-0.23-0.02-0.35,0.02c-0.11,0.03-0.21,0.08-0.3,0.16c-0.09,0.06-0.17,0.14-0.22,0.24
				c-0.03,0.07-0.06,0.14-0.09,0.21c-0.04,0.15-0.04,0.31,0,0.46c0.03,0.07,0.06,0.14,0.09,0.21C8.18,21.58,8.28,21.69,8.41,21.77
				L8.41,21.77z"/>
		</g>
	</g>
	<g>
		<g>
			<path d="M8.19,21.4c0.07,0.11,0.15,0.21,0.23,0.32c0.07,0.1,0.15,0.19,0.2,0.3c-0.03-0.07-0.06-0.14-0.09-0.21
				c0.02,0.04,0.03,0.09,0.03,0.13c-0.01-0.08-0.02-0.15-0.03-0.23c0.02,0.13,0,0.27,0.01,0.4c0,0.12,0.02,0.23,0.07,0.33
				c0.04,0.11,0.09,0.2,0.18,0.28c0.08,0.08,0.17,0.14,0.28,0.18c0.1,0.05,0.21,0.08,0.33,0.07c0.22-0.01,0.46-0.08,0.61-0.25
				c0.05-0.06,0.09-0.12,0.14-0.18c0.08-0.14,0.12-0.28,0.12-0.44c-0.01-0.11,0-0.22-0.01-0.32c-0.01-0.26-0.06-0.48-0.18-0.71
				c-0.05-0.1-0.13-0.18-0.19-0.27c-0.07-0.1-0.14-0.19-0.21-0.29c-0.05-0.1-0.13-0.18-0.22-0.24c-0.08-0.08-0.18-0.13-0.3-0.16
				c-0.12-0.04-0.23-0.04-0.35-0.02c-0.12,0.01-0.22,0.04-0.32,0.1c-0.19,0.12-0.35,0.3-0.4,0.52C8.06,20.95,8.06,21.21,8.19,21.4
				L8.19,21.4z"/>
		</g>
	</g>
	<g>
		<g>
			<path d="M8.28,21.56c0.03,0.02,0.07,0.04,0.1,0.07c-0.06-0.05-0.12-0.09-0.18-0.14c0.07,0.06,0.13,0.13,0.19,0.2
				c-0.05-0.06-0.09-0.12-0.14-0.18c0.11,0.15,0.21,0.32,0.31,0.48c0.1,0.17,0.21,0.33,0.29,0.51c-0.03-0.07-0.06-0.14-0.09-0.21
				c0.04,0.09,0.06,0.19,0.08,0.29c-0.01-0.08-0.02-0.15-0.03-0.23c0.02,0.18,0.01,0.35-0.01,0.52c0.01-0.08,0.02-0.15,0.03-0.23
				c-0.02,0.13-0.04,0.26-0.07,0.39c-0.05,0.23-0.03,0.46,0.09,0.67c0.11,0.18,0.31,0.35,0.52,0.4c0.43,0.1,0.97-0.13,1.07-0.61
				c0.06-0.31,0.13-0.63,0.12-0.95c0-0.38-0.1-0.74-0.29-1.07c-0.29-0.52-0.61-1.09-1.12-1.41c-0.39-0.24-0.97-0.1-1.19,0.31
				C7.74,20.8,7.87,21.3,8.28,21.56L8.28,21.56z"/>
		</g>
	</g>
	<g>
		<g>
			<path d="M9.56,22.72c1.12,0,1.12-1.74,0-1.74C8.45,20.98,8.45,22.72,9.56,22.72L9.56,22.72z"/>
		</g>
	</g>
	<g>
		<g>
			<path d="M9.69,23.35c1.12,0,1.12-1.74,0-1.74C8.57,21.61,8.57,23.35,9.69,23.35L9.69,23.35z"/>
		</g>
	</g>
	<g>
		<g>
			<path d="M9.64,23.63c1.12,0,1.12-1.74,0-1.74C8.53,21.9,8.52,23.63,9.64,23.63L9.64,23.63z"/>
		</g>
	</g>
	<g>
		<g>
			<path d="M9.68,23.65c1.12,0,1.12-1.74,0-1.74C8.57,21.91,8.57,23.65,9.68,23.65L9.68,23.65z"/>
		</g>
	</g>
	<g>
		<g>
			<path d="M9.74,23.65c1.12,0,1.12-1.74,0-1.74C8.63,21.91,8.63,23.65,9.74,23.65L9.74,23.65z"/>
		</g>
	</g>
	<g>
		<g>
			<path d="M14.49,20.93c-0.08,0.27-0.15,0.54-0.21,0.81c-0.03,0.13-0.06,0.27-0.08,0.41c-0.02,0.12-0.04,0.24-0.04,0.36
				c0.01,0.21,0.05,0.38,0.15,0.56c0.14,0.27,0.45,0.43,0.75,0.43c0.31,0,0.59-0.17,0.75-0.43c0.39-0.63,0.44-1.39,0.45-2.11
				c0-0.22-0.1-0.46-0.25-0.61c-0.15-0.15-0.4-0.26-0.61-0.25c-0.22,0.01-0.46,0.08-0.61,0.25c-0.16,0.17-0.25,0.38-0.25,0.61
				c0,0.27-0.01,0.54-0.04,0.81c0.01-0.08,0.02-0.15,0.03-0.23c-0.03,0.21-0.08,0.42-0.16,0.61c0.03-0.07,0.06-0.14,0.09-0.21
				c-0.04,0.08-0.08,0.17-0.13,0.24c0.5,0,1,0,1.5,0c0-0.01-0.01-0.02-0.01-0.02c0.03,0.07,0.06,0.14,0.09,0.21
				c-0.01-0.03-0.02-0.05-0.02-0.07c0.01,0.08,0.02,0.15,0.03,0.23c0-0.05,0-0.09,0-0.13c-0.01,0.08-0.02,0.15-0.03,0.23
				c0.06-0.42,0.17-0.84,0.29-1.25c0.06-0.21,0.02-0.48-0.09-0.67c-0.11-0.18-0.31-0.35-0.52-0.4c-0.22-0.05-0.47-0.04-0.67,0.09
				C14.69,20.53,14.55,20.7,14.49,20.93L14.49,20.93z"/>
		</g>
	</g>
	<g>
		<g>
			<path d="M27.56,26.25c1.12,0,1.12-1.74,0-1.74C26.44,24.51,26.44,26.25,27.56,26.25L27.56,26.25z"/>
		</g>
	</g>
	<g>
		<g>
			<path d="M27.24,25.99c0.03,0,0.06,0,0.1,0c-0.08-0.01-0.15-0.02-0.23-0.03C27.15,25.97,27.19,25.98,27.24,25.99
				c-0.07-0.02-0.14-0.05-0.21-0.08c0.04,0.02,0.08,0.04,0.11,0.07c-0.06-0.05-0.12-0.09-0.18-0.14c0.03,0.03,0.06,0.05,0.09,0.09
				c-0.05-0.06-0.09-0.12-0.14-0.18c0.03,0.04,0.05,0.08,0.07,0.12c-0.03-0.07-0.06-0.14-0.09-0.21c0.02,0.04,0.03,0.09,0.04,0.13
				c-0.01-0.08-0.02-0.15-0.03-0.23c0,0.01,0,0.03,0,0.04c0,0.12,0.02,0.23,0.07,0.33c0.04,0.11,0.09,0.2,0.18,0.28
				c0.08,0.08,0.17,0.14,0.28,0.18c0.1,0.05,0.21,0.08,0.33,0.07c0.08-0.01,0.15-0.02,0.23-0.03c0.15-0.04,0.27-0.12,0.38-0.22
				c0.05-0.06,0.09-0.12,0.14-0.18c0.08-0.14,0.12-0.28,0.12-0.44c-0.01-0.11-0.02-0.22-0.05-0.33c0-0.02-0.01-0.04-0.02-0.05
				c-0.03-0.08-0.07-0.17-0.1-0.25c-0.01-0.03-0.03-0.06-0.05-0.09c-0.05-0.07-0.11-0.14-0.16-0.21c-0.01-0.01-0.03-0.03-0.04-0.04
				c-0.08-0.07-0.16-0.14-0.26-0.2c-0.09-0.05-0.2-0.09-0.3-0.13c-0.03-0.01-0.07-0.02-0.1-0.03c-0.1-0.02-0.23-0.04-0.34-0.04
				c-0.12,0-0.23,0.02-0.33,0.07c-0.11,0.04-0.2,0.09-0.28,0.18c-0.08,0.08-0.14,0.17-0.18,0.28c-0.05,0.1-0.08,0.21-0.07,0.33
				c0.01,0.08,0.02,0.15,0.03,0.23c0.04,0.15,0.12,0.27,0.22,0.38c0.06,0.05,0.12,0.09,0.18,0.14
				C26.93,25.95,27.08,25.99,27.24,25.99L27.24,25.99z"/>
		</g>
	</g>
</g>
<g class="footprint">
	<g>
		<path d="M48.62,9.9c-1.45,0.72-2.69,0.89-4.16,0.7c-1.53-0.2-3.08-0.98-4.56-0.53c-1.51,0.46-2.36,2.02-2.95,3.48
			c-0.26,0.64-0.5,1.3-0.52,1.99c-0.08,2.04,1.79,3.73,3.77,4.18c1.99,0.45,4.05-0.04,6.03-0.53c0.83-0.2,1.66-0.41,2.43-0.77
			c1.73-0.8,3.03-2.33,3.99-3.98c0.22-0.39,0.44-0.79,0.49-1.24c0.12-0.93-0.52-1.76-1.24-2.37c-0.73-0.62-1.61-0.96-2.62-0.97"/>
	</g>
	<g>
		<g>
			<path d="M39.95,3.6c0.04,0.02,0.08,0.03,0.12,0.05c-0.08-0.05-0.05-0.03,0.07,0.06c-0.11-0.1,0.06,0.07,0.05,0.07
				c-0.04,0-0.09-0.18-0.12-0.21c0.11,0.12,0.05,0.13,0.01,0.02c-0.01-0.03-0.02-0.06-0.04-0.1c-0.06-0.15-0.12-0.3-0.19-0.44
				c-0.3-0.62-0.97-0.95-1.65-0.77c-0.63,0.17-1.08,0.77-1.34,1.34c-0.23,0.52-0.37,1.06-0.38,1.64c-0.02,1.07,0.38,2.16,1.12,2.93
				c0.23,0.24,0.51,0.47,0.83,0.57c0.48,0.14,0.93-0.02,1.3-0.33c0.46-0.38,0.78-0.95,0.93-1.52c0.37-1.39-0.17-2.78-0.97-3.9
				c-0.38-0.54-1.13-0.58-1.5,0c-0.64,0.99-0.96,2.19-0.89,3.37c0.02,0.37,0.25,0.75,0.64,0.84c0.41,0.09,0.74-0.07,0.98-0.4
				c0.36-0.49,0.62-1.05,0.79-1.64c0.12-0.44-0.15-0.96-0.61-1.07c-0.46-0.11-0.94,0.14-1.07,0.61c-0.03,0.12-0.07,0.24-0.12,0.36
				c-0.01,0.01-0.07,0.16-0.04,0.09c0.04-0.08-0.07,0.13-0.06,0.13c-0.11,0.23-0.25,0.44-0.4,0.64c0.54,0.15,1.08,0.29,1.62,0.44
				c-0.01-0.24-0.01-0.47,0.01-0.71c0.01-0.06,0.02-0.19,0-0.06c0.01-0.05,0.02-0.11,0.03-0.16c0.02-0.12,0.05-0.25,0.08-0.37
				c0.03-0.11,0.06-0.21,0.1-0.32c0.02-0.07,0.05-0.13,0.07-0.2c0.02-0.05,0.05-0.11,0.01-0.02c0.11-0.23,0.22-0.45,0.36-0.66
				c-0.5,0-1,0-1.5,0c0.13,0.18,0.25,0.36,0.36,0.55c0.06,0.09,0.11,0.19,0.16,0.29c0.03,0.05,0.05,0.1,0.07,0.15
				c0.01,0.01,0.1,0.25,0.04,0.09c0.07,0.21,0.14,0.41,0.19,0.63c0.01,0.05,0.02,0.11,0.03,0.16c-0.03-0.17-0.01-0.04,0-0.01
				c0.01,0.12,0.01,0.24,0.01,0.36c0,0.05-0.01,0.1-0.01,0.15c0-0.03,0.03-0.18,0-0.01c-0.02,0.09-0.04,0.19-0.07,0.28
				c-0.02,0.06-0.13,0.29-0.04,0.13c-0.05,0.09-0.1,0.19-0.16,0.28c-0.03,0.04-0.13,0.16-0.01,0.02c-0.03,0.04-0.06,0.07-0.1,0.11
				c-0.03,0.03-0.07,0.07-0.1,0.1c0.05-0.05,0.11-0.04,0.01-0.01c0.2-0.04,0.25-0.09,0.46,0c-0.03-0.01-0.13-0.09-0.02,0
				c-0.08-0.06-0.15-0.13-0.21-0.2c-0.03-0.03-0.06-0.06-0.09-0.1c-0.02-0.02-0.11-0.13-0.03-0.04c0.07,0.09-0.01-0.02-0.03-0.04
				c-0.02-0.04-0.05-0.07-0.07-0.11c-0.05-0.07-0.09-0.15-0.13-0.23c-0.02-0.04-0.04-0.08-0.06-0.12c-0.05-0.09,0.05,0.15,0,0
				c-0.06-0.18-0.12-0.35-0.15-0.53c-0.01-0.04-0.01-0.09-0.02-0.13c-0.02-0.12,0.01,0.16,0.01,0.04c-0.01-0.1-0.02-0.19-0.02-0.29
				c0-0.09,0-0.17,0.01-0.26c0-0.04,0.01-0.09,0.01-0.13c0.01-0.18,0,0.03-0.01,0.04c0.02-0.01,0.04-0.23,0.05-0.25
				c0.03-0.11,0.06-0.21,0.09-0.31c0.01-0.04,0.07-0.15-0.02,0.03c0.02-0.04,0.04-0.08,0.05-0.12c0.04-0.08,0.08-0.15,0.13-0.23
				c0.03-0.04,0.18-0.22,0.07-0.11c0.04-0.04,0.07-0.08,0.11-0.11c-0.06,0.05-0.07,0.05-0.02,0.02c0.06-0.03,0.04-0.03-0.04,0.01
				c-0.06,0-0.11,0.01-0.18,0c-0.04-0.02-0.08-0.04-0.12-0.05c0.06,0.04,0.05,0.03-0.01-0.02c-0.13-0.1,0.02,0.08-0.06-0.06
				c-0.07-0.13,0,0,0.01,0.03c0.02,0.03,0.03,0.06,0.05,0.09c0.09,0.16-0.07-0.19-0.01-0.02c0.03,0.07,0.06,0.15,0.08,0.22
				c0.22,0.54,0.49,0.94,1.06,1.16c0.43,0.16,0.97-0.18,1.07-0.61C40.67,4.18,40.4,3.77,39.95,3.6L39.95,3.6z"/>
		</g>
	</g>
	<g>
		<g>
			<path d="M46.65,1.42c-0.06-0.4-0.43-0.73-0.8-0.84c-0.44-0.13-0.89,0.01-1.23,0.31c-0.43,0.38-0.7,1.02-0.87,1.56
				c-0.34,1.06-0.32,2.29,0.08,3.32c0.24,0.62,0.57,1.36,1.25,1.59c0.6,0.2,1.3-0.06,1.8-0.4c0.95-0.64,1.6-1.74,1.57-2.91
				c-0.03-1.26-0.81-2.52-1.98-3.04c-0.33-0.15-0.66-0.17-0.96,0.07c-0.25,0.19-0.44,0.59-0.31,0.91c0.11,0.28,0.2,0.56,0.26,0.85
				c0.01,0.07,0.03,0.15,0.04,0.22c0.03,0.16-0.02-0.2,0.01,0.08c0.01,0.15,0.02,0.29,0.02,0.44c0,0.15,0,0.3-0.01,0.44
				c0,0.06-0.01,0.12-0.02,0.18c0.02-0.14-0.01,0.05-0.01,0.08c-0.05,0.31-0.14,0.6-0.25,0.9c0.56,0,1.12,0,1.67,0
				c-0.03-0.14-0.02-0.28,0.04-0.46c0.13-0.44-0.15-0.97-0.61-1.07c-0.47-0.11-0.93,0.14-1.07,0.61c-0.14,0.46-0.13,0.92-0.04,1.38
				c0.07,0.36,0.48,0.65,0.84,0.64c0.41-0.02,0.7-0.26,0.84-0.64c0.48-1.3,0.47-2.81-0.04-4.1c-0.43,0.33-0.85,0.65-1.28,0.98
				c0.16,0.07,0.3,0.16,0.45,0.25c-0.12-0.07,0.01,0.01,0.05,0.05c0.07,0.07,0.14,0.14,0.21,0.21c0.01,0.01,0.09,0.1,0.03,0.03
				c-0.07-0.08,0.03,0.04,0.04,0.06c0.04,0.06,0.08,0.12,0.12,0.19c0.04,0.07,0.08,0.15,0.12,0.23c-0.07-0.16,0.02,0.08,0.04,0.14
				c0.02,0.07,0.04,0.14,0.05,0.21c0.04,0.16,0,0.02,0-0.01c0,0.04,0.01,0.07,0.01,0.11c0,0.09,0,0.17,0,0.26
				c0,0.02-0.01,0.14,0,0.03c0.01-0.12-0.02,0.09-0.02,0.1c-0.02,0.07-0.03,0.14-0.06,0.21c-0.01,0.05-0.03,0.09-0.05,0.14
				c0-0.01,0.06-0.13,0.02-0.04c-0.08,0.15-0.16,0.3-0.26,0.44c-0.07,0.11,0.09-0.09,0,0c-0.03,0.03-0.05,0.06-0.07,0.08
				c-0.06,0.06-0.12,0.12-0.19,0.18c-0.03,0.02-0.06,0.05-0.08,0.07c0.01-0.01,0.11-0.07,0.03-0.03c-0.08,0.05-0.16,0.11-0.25,0.15
				c-0.04,0.02-0.09,0.04-0.13,0.07c-0.09,0.04,0.03-0.01,0.04-0.02c-0.04,0.01-0.07,0.02-0.1,0.04c-0.05,0.01-0.15,0-0.08,0.03
				c0.03,0.01,0.08,0,0.11,0.01c0,0,0.28,0.11,0.16,0.08c-0.01-0.01-0.02-0.02-0.03-0.03c0.05,0.06,0.05,0.07,0.02,0.02
				c-0.03-0.04-0.06-0.09-0.08-0.14c-0.05-0.08-0.09-0.16-0.13-0.25c-0.02-0.04-0.09-0.22-0.04-0.09c-0.07-0.19-0.13-0.38-0.18-0.57
				c-0.02-0.09-0.04-0.18-0.05-0.27c-0.03-0.17,0,0.08-0.01-0.09c-0.01-0.2-0.02-0.4-0.01-0.6c0-0.09,0.01-0.19,0.02-0.28
				c-0.02,0.16,0,0.03,0-0.01c0.01-0.05,0.02-0.1,0.03-0.16c0.04-0.21,0.11-0.41,0.18-0.61c0-0.01,0.05-0.13,0.02-0.04
				c-0.04,0.09,0.06-0.12,0.06-0.11c0.04-0.08,0.09-0.17,0.13-0.25c0.03-0.05,0.06-0.09,0.08-0.14c0.03-0.04,0.03-0.04,0-0.01
				c-0.03,0.03-0.03,0.03,0.01,0c0.01-0.01,0.02-0.02,0.03-0.03c-0.06,0.04-0.12,0.07-0.19,0.11c-0.22,0.09-0.62-0.13-0.66-0.37
				c0.07,0.45,0.66,0.74,1.07,0.61C46.54,2.33,46.73,1.9,46.65,1.42L46.65,1.42z"/>
		</g>
	</g>
	<g>
		<g>
			<path d="M54.85,2.85c-2-0.5-3.87,0.8-4.73,2.55c-0.25,0.5-0.55,1.11-0.39,1.68C49.95,7.8,50.69,8,51.35,7.89
				c0.41-0.07,0.82-0.26,1.19-0.44c0.4-0.2,0.75-0.44,1.1-0.72c0.72-0.57,1.32-1.32,1.71-2.15c0.15-0.32,0.16-0.67-0.07-0.96
				c-0.21-0.27-0.58-0.41-0.91-0.31c-1.04,0.32-2.01,0.94-2.69,1.79c-0.15,0.19-0.25,0.37-0.25,0.61c0,0.21,0.09,0.47,0.25,0.61
				c0.32,0.29,0.92,0.38,1.23,0c0.14-0.18,0.29-0.34,0.46-0.5c0.08-0.07,0.16-0.14,0.24-0.21c0.13-0.11,0-0.04,0,0
				c0-0.01,0.15-0.1,0.16-0.11c0.18-0.12,0.36-0.23,0.56-0.33c0.01,0,0.17-0.09,0.18-0.08c0,0-0.18,0.07,0,0
				c0.11-0.04,0.22-0.08,0.34-0.12c-0.33-0.43-0.65-0.85-0.98-1.28c-0.14,0.29-0.3,0.57-0.49,0.84c-0.02,0.02-0.07,0.08-0.07,0.1
				c0,0,0.1-0.13,0.04-0.06c-0.05,0.06-0.1,0.13-0.16,0.19c-0.11,0.12-0.22,0.24-0.33,0.35c-0.11,0.11-0.22,0.2-0.34,0.3
				c-0.12,0.1,0.01-0.01,0.03-0.02c-0.03,0.02-0.07,0.05-0.1,0.07c-0.07,0.05-0.15,0.11-0.23,0.16c-0.13,0.08-0.26,0.16-0.39,0.23
				c-0.07,0.04-0.14,0.08-0.22,0.11C51.58,5.99,51.55,6,51.53,6.02c-0.11,0.05-0.08,0.02,0.01,0c-0.15,0.03-0.31,0.12-0.46,0.16
				C51.04,6.19,50.84,6.23,51,6.2c0.14-0.03,0.03-0.01-0.01-0.01c-0.07,0.01-0.19-0.04,0.06,0.01c-0.07-0.01-0.1-0.07,0.08,0.04
				c0.12,0.07,0.25,0.22,0.27,0.35c0,0.02-0.05,0.31,0.01,0.21c0.02-0.04,0.03-0.09,0.04-0.14c0.03-0.07,0.05-0.14,0.08-0.21
				c0.07-0.17-0.01,0.02-0.01,0.03c-0.01-0.02,0.06-0.12,0.07-0.15c0.07-0.15,0.15-0.29,0.23-0.44c0.04-0.08,0.09-0.15,0.14-0.22
				c0.02-0.04,0.05-0.07,0.07-0.11c0.01-0.02,0.13-0.17,0.05-0.07c-0.07,0.09,0.08-0.09,0.1-0.11c0.06-0.07,0.12-0.13,0.18-0.19
				c0.06-0.06,0.13-0.12,0.19-0.18c0.02-0.02,0.05-0.04,0.07-0.06c0.08-0.07-0.13,0.09,0.01,0c0.16-0.11,0.33-0.21,0.51-0.3
				c0.04-0.02,0.13-0.09-0.03,0.01c0.04-0.03,0.11-0.04,0.15-0.06c0.09-0.03,0.19-0.06,0.28-0.08c0.04-0.01,0.09-0.02,0.13-0.03
				c0.13-0.03,0,0.02-0.04,0c0.05,0.03,0.23-0.02,0.29-0.02c0.07,0,0.23-0.02,0.29,0.01c-0.09-0.05-0.13-0.03-0.04,0
				c0.06,0.01,0.13,0.03,0.19,0.04c0.44,0.11,0.96-0.14,1.07-0.61C55.56,3.47,55.32,2.97,54.85,2.85L54.85,2.85z"/>
		</g>
	</g>
	<g>
		<g>
			<path d="M58.12,7.04c-0.36-0.38-0.88-0.48-1.38-0.39c-0.4,0.08-0.75,0.31-1.06,0.56c-0.56,0.44-1.09,0.96-1.47,1.56
				c-0.42,0.67-0.59,1.64,0.02,2.25c0.38,0.38,0.98,0.48,1.47,0.29c0.41-0.17,0.74-0.44,1.06-0.75c0.59-0.57,1.1-1.24,1.5-1.96
				c0.17-0.31,0.15-0.68-0.07-0.96c-0.22-0.28-0.56-0.39-0.91-0.31c-0.65,0.14-1.26,0.48-1.74,0.94c-0.24,0.22-0.44,0.48-0.61,0.76
				c-0.21,0.34-0.39,0.74-0.4,1.15c-0.01,0.48,0.25,0.98,0.69,1.19c0.38,0.18,0.79,0.2,1.19,0.08c0.63-0.19,1.17-0.66,1.57-1.17
				c0.46-0.59,0.81-1.28,0.92-2.04c0.03-0.24,0.04-0.45-0.09-0.67c-0.11-0.18-0.31-0.35-0.52-0.4c-0.22-0.05-0.47-0.04-0.67,0.09
				c-0.18,0.11-0.37,0.3-0.4,0.52c-0.03,0.23-0.08,0.45-0.16,0.67c-0.02,0.05-0.04,0.11-0.06,0.16c-0.04,0.1,0.08-0.17,0.03-0.07
				c-0.01,0.02-0.02,0.04-0.03,0.07c-0.05,0.11-0.11,0.22-0.18,0.32c-0.03,0.05-0.06,0.1-0.09,0.14c-0.02,0.03-0.14,0.19-0.05,0.07
				c0.09-0.11-0.02,0.02-0.04,0.05c-0.04,0.05-0.09,0.1-0.13,0.15c-0.08,0.08-0.16,0.16-0.25,0.24c-0.02,0.02-0.04,0.03-0.06,0.05
				c-0.11,0.09,0.05-0.04,0.06-0.04c-0.05,0.03-0.11,0.08-0.16,0.11c-0.04,0.03-0.08,0.05-0.13,0.08c-0.01,0-0.05,0.03-0.05,0.03
				c-0.01-0.01,0.2-0.07,0.11-0.05c-0.05,0.01-0.09,0.03-0.14,0.04c-0.03,0.01-0.05,0.01-0.08,0.02c-0.12,0.03,0.11-0.02,0.11-0.02
				c0,0.01-0.26-0.02-0.04,0.01c0.16,0.02,0.07,0.01,0.04,0c-0.11-0.04,0.11,0.05,0.11,0.05c0,0-0.04-0.02-0.04-0.03
				c-0.06-0.04,0.13,0.11,0.15,0.14c0.09,0.13,0.04,0.06,0.03,0.03c0.04,0.09,0.06,0.16,0.06,0.26c-0.01-0.14-0.01,0.05-0.02,0.07
				c0.01-0.02,0.01-0.05,0.02-0.08c0.01-0.03,0.02-0.07,0.03-0.1c0.02-0.09-0.04,0.09-0.04,0.09c0.06-0.1,0.1-0.21,0.16-0.31
				c0.03-0.05,0.06-0.09,0.09-0.14c0.01-0.02,0.03-0.04,0.04-0.06c0.06-0.09-0.12,0.15-0.05,0.06c0.07-0.08,0.14-0.17,0.22-0.24
				c0.04-0.04,0.09-0.09,0.14-0.13c0.02-0.02,0.05-0.04,0.07-0.06c0.08-0.07-0.15,0.11-0.06,0.05c0.1-0.07,0.21-0.14,0.32-0.2
				c0.06-0.03,0.11-0.06,0.17-0.09c0.17-0.08-0.17,0.06,0.01,0c0.13-0.05,0.25-0.08,0.39-0.11c-0.33-0.43-0.65-0.85-0.98-1.28
				c-0.13,0.24-0.28,0.47-0.44,0.7c-0.04,0.05-0.07,0.1-0.11,0.16c-0.02,0.02-0.04,0.04-0.05,0.07c0.01-0.02,0.13-0.16,0.03-0.05
				c-0.09,0.11-0.17,0.21-0.26,0.32c-0.18,0.2-0.36,0.39-0.56,0.57c-0.05,0.04-0.1,0.08-0.14,0.13c-0.08,0.08,0.14-0.1,0.05-0.04
				c-0.02,0.01-0.04,0.03-0.07,0.05c-0.03,0.02-0.06,0.04-0.09,0.06c-0.06,0.04-0.11,0.01,0.07-0.02c-0.08,0.01-0.28,0.04-0.01,0.02
				c-0.03,0-0.12-0.01,0.02,0.01c0.03,0,0.23,0.09,0.17,0.05c-0.08-0.05,0.12,0.09,0.1,0.08c-0.09-0.08,0.07,0.08,0.07,0.09
				c0,0-0.03-0.04-0.03-0.05c-0.05-0.09,0.08,0.2,0.05,0.11c-0.05-0.16,0,0.22,0,0.04c0-0.02-0.01-0.13,0.01-0.14
				c0.01-0.01-0.05,0.25-0.01,0.11c0.01-0.02,0.01-0.04,0.01-0.06c0.01-0.02,0.02-0.12,0.05-0.14c0.01,0-0.1,0.22-0.04,0.1
				c0.02-0.03,0.03-0.06,0.04-0.08c0.06-0.11,0.13-0.22,0.21-0.32c0.09-0.13-0.03,0.05-0.04,0.05c0.01,0,0.07-0.09,0.07-0.08
				c0.05-0.06,0.1-0.11,0.14-0.16c0.18-0.19,0.37-0.37,0.57-0.55c0.06-0.05,0.12-0.11,0.18-0.16c0.06-0.05,0.22-0.14,0-0.01
				c0.11-0.06,0.21-0.14,0.33-0.2c0.06-0.03,0.11-0.01-0.08,0.03c0.03-0.01,0.06-0.02,0.09-0.03c0,0,0.08-0.03,0.08-0.02
				c0.01,0-0.23,0.01-0.11,0.02c-0.01,0,0.08,0,0.08,0c-0.05-0.01-0.1-0.01-0.15-0.02c0.06,0.02,0.05,0.01-0.03-0.02
				c-0.13-0.06-0.06-0.03-0.03-0.01c0.13,0.07-0.16-0.14-0.05-0.03c0.31,0.33,0.92,0.34,1.23,0C58.45,7.91,58.45,7.4,58.12,7.04
				L58.12,7.04z"/>
		</g>
	</g>
	<g>
		<g>
			<path d="M38.34,4.19c0.01,0.2,0.01,0.41,0.02,0.61c0,0.12,0.02,0.23,0.07,0.33c0.04,0.11,0.09,0.2,0.18,0.28
				c0.08,0.08,0.17,0.14,0.28,0.18c0.1,0.05,0.21,0.08,0.33,0.07c0.08-0.01,0.15-0.02,0.23-0.03c0.15-0.04,0.27-0.12,0.38-0.22
				c0.05-0.06,0.09-0.12,0.14-0.18c0.08-0.14,0.12-0.28,0.12-0.44c-0.01-0.2-0.01-0.41-0.02-0.61c0-0.12-0.02-0.23-0.07-0.33
				c-0.04-0.11-0.09-0.2-0.18-0.28c-0.08-0.08-0.17-0.14-0.28-0.18c-0.1-0.05-0.21-0.08-0.33-0.07c-0.08,0.01-0.15,0.02-0.23,0.03
				c-0.15,0.04-0.27,0.12-0.38,0.22c-0.05,0.06-0.09,0.12-0.14,0.18C38.38,3.88,38.34,4.03,38.34,4.19L38.34,4.19z"/>
		</g>
	</g>
	<g>
		<g>
			<path d="M38.52,4.2c0,0,0.01,0.01,0.01,0.01c-0.06-0.05-0.12-0.09-0.18-0.14c0.02,0.02,0.04,0.03,0.06,0.06
				c-0.05-0.06-0.09-0.12-0.14-0.18c0.03,0.03,0.05,0.07,0.06,0.11C38.31,4,38.28,3.93,38.25,3.86C38.28,3.93,38.3,4,38.31,4.07
				c0.01,0.04,0.02,0.07,0.03,0.11c0.03,0.08,0.07,0.17,0.1,0.25c0.01,0.02,0.02,0.04,0.03,0.05c0.05,0.1,0.13,0.18,0.22,0.24
				c0.08,0.08,0.18,0.13,0.3,0.16c0.12,0.04,0.23,0.04,0.35,0.02c0.12-0.01,0.22-0.04,0.32-0.1c0.06-0.05,0.12-0.09,0.18-0.14
				c0.11-0.11,0.18-0.24,0.22-0.38c0.01-0.08,0.02-0.15,0.03-0.23c0-0.16-0.04-0.3-0.12-0.44c-0.01-0.02-0.02-0.04-0.03-0.06
				c0.03,0.07,0.06,0.14,0.09,0.21c-0.04-0.1-0.06-0.21-0.09-0.31c-0.03-0.09-0.07-0.18-0.11-0.27c-0.01-0.02-0.02-0.04-0.03-0.06
				c-0.03-0.04-0.06-0.08-0.09-0.11c-0.03-0.03-0.06-0.08-0.09-0.11c-0.01-0.01-0.02-0.02-0.03-0.02c-0.06-0.05-0.13-0.11-0.2-0.15
				c-0.1-0.06-0.21-0.1-0.32-0.1c-0.12-0.03-0.23-0.02-0.35,0.02c-0.11,0.03-0.21,0.08-0.3,0.16c-0.09,0.06-0.17,0.14-0.22,0.24
				c-0.03,0.07-0.06,0.14-0.09,0.21c-0.04,0.15-0.04,0.31,0,0.46c0.03,0.07,0.06,0.14,0.09,0.21C38.29,4.02,38.39,4.13,38.52,4.2
				L38.52,4.2z"/>
		</g>
	</g>
	<g>
		<g>
			<path d="M38.3,3.84c0.07,0.11,0.15,0.21,0.23,0.32c0.07,0.1,0.15,0.19,0.2,0.3c-0.03-0.07-0.06-0.14-0.09-0.21
				c0.02,0.04,0.03,0.09,0.03,0.13c-0.01-0.08-0.02-0.15-0.03-0.23c0.02,0.13,0,0.27,0.01,0.4c0,0.12,0.02,0.23,0.07,0.33
				c0.04,0.11,0.09,0.2,0.18,0.28c0.08,0.08,0.17,0.14,0.28,0.18c0.1,0.05,0.21,0.08,0.33,0.07c0.22-0.01,0.46-0.08,0.61-0.25
				c0.05-0.06,0.09-0.12,0.14-0.18c0.08-0.14,0.12-0.28,0.12-0.44c-0.01-0.11,0-0.22-0.01-0.32c-0.01-0.26-0.06-0.48-0.18-0.71
				c-0.05-0.1-0.13-0.18-0.19-0.27c-0.07-0.1-0.14-0.19-0.21-0.29c-0.05-0.1-0.13-0.18-0.22-0.24c-0.08-0.08-0.18-0.13-0.3-0.16
				c-0.12-0.04-0.23-0.04-0.35-0.02c-0.12,0.01-0.22,0.04-0.32,0.1c-0.19,0.12-0.35,0.3-0.4,0.52C38.16,3.39,38.17,3.65,38.3,3.84
				L38.3,3.84z"/>
		</g>
	</g>
	<g>
		<g>
			<path d="M38.39,4c0.03,0.02,0.07,0.04,0.1,0.07c-0.06-0.05-0.12-0.09-0.18-0.14c0.07,0.06,0.13,0.13,0.19,0.2
				c-0.05-0.06-0.09-0.12-0.14-0.18c0.11,0.15,0.21,0.32,0.31,0.48c0.1,0.17,0.21,0.33,0.29,0.51c-0.03-0.07-0.06-0.14-0.09-0.21
				c0.04,0.09,0.06,0.19,0.08,0.29c-0.01-0.08-0.02-0.15-0.03-0.23c0.02,0.18,0.01,0.35-0.01,0.52c0.01-0.08,0.02-0.15,0.03-0.23
				c-0.02,0.13-0.04,0.26-0.07,0.39c-0.05,0.23-0.03,0.46,0.09,0.67c0.11,0.18,0.31,0.35,0.52,0.4c0.43,0.1,0.97-0.13,1.07-0.61
				c0.06-0.31,0.13-0.63,0.12-0.95c0-0.38-0.1-0.74-0.29-1.07c-0.29-0.52-0.61-1.09-1.12-1.41c-0.39-0.24-0.97-0.1-1.19,0.31
				C37.85,3.23,37.97,3.74,38.39,4L38.39,4z"/>
		</g>
	</g>
	<g>
		<g>
			<path d="M39.67,5.16c1.12,0,1.12-1.74,0-1.74C38.55,3.42,38.55,5.16,39.67,5.16L39.67,5.16z"/>
		</g>
	</g>
	<g>
		<g>
			<path d="M39.79,5.79c1.12,0,1.12-1.74,0-1.74C38.67,4.05,38.67,5.79,39.79,5.79L39.79,5.79z"/>
		</g>
	</g>
	<g>
		<g>
			<path d="M39.75,6.07c1.12,0,1.12-1.74,0-1.74C38.63,4.33,38.63,6.07,39.75,6.07L39.75,6.07z"/>
		</g>
	</g>
	<g>
		<g>
			<path d="M39.79,6.09c1.12,0,1.12-1.74,0-1.74C38.67,4.35,38.67,6.09,39.79,6.09L39.79,6.09z"/>
		</g>
	</g>
	<g>
		<g>
			<path d="M39.85,6.09c1.12,0,1.12-1.74,0-1.74C38.73,4.35,38.73,6.09,39.85,6.09L39.85,6.09z"/>
		</g>
	</g>
	<g>
		<g>
			<path d="M44.59,3.36c-0.08,0.27-0.15,0.54-0.21,0.81c-0.03,0.13-0.06,0.27-0.08,0.41c-0.02,0.12-0.04,0.24-0.04,0.36
				c0.01,0.21,0.05,0.38,0.15,0.56c0.14,0.27,0.45,0.43,0.75,0.43c0.31,0,0.59-0.17,0.75-0.43c0.39-0.63,0.44-1.39,0.45-2.11
				c0-0.22-0.1-0.46-0.25-0.61c-0.15-0.15-0.4-0.26-0.61-0.25c-0.22,0.01-0.46,0.08-0.61,0.25c-0.16,0.17-0.25,0.38-0.25,0.61
				c0,0.27-0.01,0.54-0.04,0.81c0.01-0.08,0.02-0.15,0.03-0.23c-0.03,0.21-0.08,0.42-0.16,0.61c0.03-0.07,0.06-0.14,0.09-0.21
				c-0.04,0.08-0.08,0.17-0.13,0.24c0.5,0,1,0,1.5,0c0-0.01-0.01-0.02-0.01-0.02c0.03,0.07,0.06,0.14,0.09,0.21
				c-0.01-0.03-0.02-0.05-0.02-0.07C45.98,4.82,45.99,4.9,46,4.97c0-0.05,0-0.09,0-0.13C46,4.92,45.99,4.99,45.98,5.07
				c0.06-0.42,0.17-0.84,0.29-1.25c0.06-0.21,0.02-0.48-0.09-0.67c-0.11-0.18-0.31-0.35-0.52-0.4c-0.22-0.05-0.47-0.04-0.67,0.09
				C44.8,2.97,44.66,3.14,44.59,3.36L44.59,3.36z"/>
		</g>
	</g>
	<g>
		<g>
			<path d="M57.67,8.69c1.12,0,1.12-1.74,0-1.74C56.55,6.95,56.55,8.69,57.67,8.69L57.67,8.69z"/>
		</g>
	</g>
	<g>
		<g>
			<path d="M57.34,8.43c0.03,0,0.06,0,0.1,0c-0.08-0.01-0.15-0.02-0.23-0.03C57.26,8.41,57.3,8.42,57.34,8.43
				c-0.07-0.02-0.14-0.05-0.21-0.08c0.04,0.02,0.08,0.04,0.11,0.07c-0.06-0.05-0.12-0.09-0.18-0.14c0.03,0.03,0.06,0.05,0.09,0.09
				c-0.05-0.06-0.09-0.12-0.14-0.18c0.03,0.04,0.05,0.08,0.07,0.12c-0.03-0.07-0.06-0.14-0.09-0.21c0.02,0.04,0.03,0.09,0.04,0.13
				c-0.01-0.08-0.02-0.15-0.03-0.23c0,0.01,0,0.03,0,0.04c0,0.12,0.02,0.23,0.07,0.33c0.04,0.11,0.09,0.2,0.18,0.28
				c0.08,0.08,0.17,0.14,0.28,0.18c0.1,0.05,0.21,0.08,0.33,0.07c0.08-0.01,0.15-0.02,0.23-0.03c0.15-0.04,0.27-0.12,0.38-0.22
				c0.05-0.06,0.09-0.12,0.14-0.18c0.08-0.14,0.12-0.28,0.12-0.44c-0.01-0.11-0.02-0.22-0.05-0.33c0-0.02-0.01-0.04-0.02-0.05
				c-0.03-0.08-0.07-0.17-0.1-0.25c-0.01-0.03-0.03-0.06-0.05-0.09c-0.05-0.07-0.11-0.14-0.16-0.21c-0.01-0.01-0.03-0.03-0.04-0.04
				c-0.08-0.07-0.16-0.14-0.26-0.2c-0.09-0.05-0.2-0.09-0.3-0.13c-0.03-0.01-0.07-0.02-0.1-0.03c-0.1-0.02-0.23-0.04-0.34-0.04
				c-0.12,0-0.23,0.02-0.33,0.07c-0.11,0.04-0.2,0.09-0.28,0.18c-0.08,0.08-0.14,0.17-0.18,0.28c-0.05,0.1-0.08,0.21-0.07,0.33
				c0.01,0.08,0.02,0.15,0.03,0.23c0.04,0.15,0.12,0.27,0.22,0.38c0.06,0.05,0.12,0.09,0.18,0.14C57.04,8.39,57.19,8.43,57.34,8.43
				L57.34,8.43z"/>
		</g>
	</g>
</g>
  
</svg>